M48
; DRILL file {KiCad (6.0.8-1)-1} date Friday, November 25, 2022 at 02:48:04 PM
; FORMAT={-:-/ absolute / inch / decimal}
; #@! TF.CreationDate,2022-11-25T14:48:04-05:00
; #@! TF.GenerationSoftware,Kicad,Pcbnew,(6.0.8-1)-1
; #@! TF.FileFunction,Plated,1,4,PTH
FMAT,2
INCH
; #@! TA.AperFunction,Plated,PTH,ComponentDrill
T1C0.0079
; #@! TA.AperFunction,Plated,PTH,ViaDrill
T2C0.0157
; #@! TA.AperFunction,Plated,PTH,ComponentDrill
T3C0.0236
; #@! TA.AperFunction,Plated,PTH,ComponentDrill
T4C0.0295
; #@! TA.AperFunction,Plated,PTH,ComponentDrill
T5C0.0394
; #@! TA.AperFunction,Plated,PTH,ComponentDrill
T6C0.0472
; #@! TA.AperFunction,Plated,PTH,ComponentDrill
T7C0.1063
%
G90
G05
T1
X4.1931Y-2.6842
X4.1931Y-2.7442
X4.2231Y-2.6541
X4.2231Y-2.7142
X4.2231Y-2.7742
X4.2531Y-2.6842
X4.2531Y-2.7442
X4.2832Y-2.6541
X4.2832Y-2.7142
X4.2832Y-2.7742
X4.3132Y-2.6842
X4.3132Y-2.7442
T2
X3.045Y-3.235
X3.265Y-2.4
X3.275Y-3.275
X3.285Y-3.355
X3.29Y-2.815
X3.29Y-2.87
X3.29Y-2.92
X3.29Y-3.1182
X3.3Y-3.075
X3.325Y-3.275
X3.59Y-2.925
X3.6Y-2.185
X3.625Y-2.89
X3.6275Y-2.255
X3.675Y-2.48
X3.715Y-2.53
X3.77Y-2.655
X3.825Y-3.65
X3.845Y-2.875
X3.845Y-2.925
X3.845Y-3.075
X3.85Y-3.61
X3.88Y-3.505
X4.025Y-3.195
X4.0528Y-3.2295
X4.065Y-3.595
X4.105Y-3.04
X4.13Y-3.225
X4.335Y-2.425
X4.4Y-2.455
X4.465Y-3.27
X4.535Y-2.525
X4.535Y-2.675
X4.715Y-2.475
X4.715Y-2.775
X4.715Y-2.825
X4.715Y-2.925
X4.715Y-2.975
X4.715Y-3.025
X4.8348Y-2.7956
X4.8375Y-2.7025
X4.865Y-2.67
X4.93Y-2.93
X4.99Y-3.26
X5.075Y-2.97
X5.115Y-2.645
X5.128Y-2.9275
X5.13Y-2.77
X5.135Y-2.605
X5.135Y-2.72
X5.18Y-2.9433
X5.19Y-3.295
X5.26Y-2.545
X5.275Y-2.975
X5.28Y-2.87
X5.305Y-2.69
X5.305Y-2.735
X5.335Y-3.215
X5.335Y-3.885
X5.35Y-2.69
X5.35Y-2.735
X5.4Y-3.105
X5.41Y-3.25
X5.465Y-2.86
X5.47Y-2.575
X5.49Y-2.2185
X5.49Y-2.2585
X5.525Y-2.78
X5.53Y-2.2185
X5.53Y-2.2585
X5.5654Y-2.7946
X5.57Y-3.395
X5.5946Y-2.7654
X5.67Y-3.24
X5.68Y-3.6
X5.685Y-2.39
X5.735Y-2.22
X5.735Y-2.27
X5.76Y-2.38
X5.765Y-2.435
X5.765Y-2.49
X5.765Y-3.487
X5.765Y-3.535
X5.772Y-3.417
X5.78Y-2.22
X5.78Y-2.27
X5.81Y-2.38
X5.81Y-2.435
X5.81Y-3.455
X5.86Y-2.435
X5.8804Y-2.7346
X5.9096Y-2.7054
X5.91Y-3.255
X5.91Y-3.37
X5.91Y-3.57
X5.95Y-3.075
X6.02Y-2.615
X6.02Y-2.745
X6.045Y-2.585
X6.045Y-2.775
X6.065Y-2.615
X6.065Y-2.745
X6.085Y-2.585
X6.085Y-2.775
X6.095Y-2.525
X6.095Y-2.835
X6.095Y-3.025
X6.19Y-3.4
X6.25Y-3.075
X6.255Y-3.405
X6.255Y-3.49
X6.255Y-3.535
X6.255Y-3.575
X6.335Y-3.24
X6.335Y-3.755
T4
X3.365Y-4.646
X3.3725Y-5.32
X3.4438Y-4.646
X3.4513Y-5.32
X3.5225Y-4.646
X3.53Y-5.32
X3.6013Y-4.646
X3.6087Y-5.32
X3.68Y-4.646
X3.6875Y-5.32
X3.7524Y-3.822
X3.8312Y-3.822
X3.9099Y-3.822
X3.9887Y-3.822
X4.0674Y-3.822
X4.2724Y-3.822
X4.3512Y-3.822
X4.4299Y-3.822
X4.5087Y-3.822
X4.5874Y-3.822
X4.7918Y-3.822
X4.8706Y-3.822
X4.9493Y-3.822
X5.028Y-3.822
T5
X3.9139Y-4.4212
X3.9139Y-4.5212
X3.9139Y-4.6212
X3.9139Y-4.7212
X3.9139Y-5.2412
X3.9139Y-5.3412
X3.9139Y-5.4412
X3.9139Y-5.5412
T6
X5.4965Y-4.4726
X5.4965Y-4.6694
X5.4965Y-5.3016
X5.4965Y-5.4984
X5.9887Y-4.4726
X5.9887Y-4.6694
X5.9887Y-5.3016
X5.9887Y-5.4984
T7
X3.08Y-2.27
X3.08Y-3.93
X3.08Y-4.571
X3.08Y-5.385
X6.24Y-2.27
X6.24Y-3.93
X6.255Y-4.571
X6.255Y-5.385
T3
G00X6.1572Y-2.5096
M15
G01X6.2005Y-2.5096
M16
G05
G00X6.1572Y-2.8502
M15
G01X6.2005Y-2.8502
M16
G05
G00X6.3314Y-2.5096
M15
G01X6.3629Y-2.5096
M16
G05
G00X6.3314Y-2.8502
M15
G01X6.3629Y-2.8502
M16
G05
T0
M30
