%TF.GenerationSoftware,KiCad,Pcbnew,(6.0.8-1)-1*%
%TF.CreationDate,2023-01-11T13:53:07-05:00*%
%TF.ProjectId,smart-chessboard-controller,736d6172-742d-4636-9865-7373626f6172,C*%
%TF.SameCoordinates,Original*%
%TF.FileFunction,Paste,Top*%
%TF.FilePolarity,Positive*%
%FSLAX46Y46*%
G04 Gerber Fmt 4.6, Leading zero omitted, Abs format (unit mm)*
G04 Created by KiCad (PCBNEW (6.0.8-1)-1) date 2023-01-11 13:53:07*
%MOMM*%
%LPD*%
G01*
G04 APERTURE LIST*
G04 Aperture macros list*
%AMRoundRect*
0 Rectangle with rounded corners*
0 $1 Rounding radius*
0 $2 $3 $4 $5 $6 $7 $8 $9 X,Y pos of 4 corners*
0 Add a 4 corners polygon primitive as box body*
4,1,4,$2,$3,$4,$5,$6,$7,$8,$9,$2,$3,0*
0 Add four circle primitives for the rounded corners*
1,1,$1+$1,$2,$3*
1,1,$1+$1,$4,$5*
1,1,$1+$1,$6,$7*
1,1,$1+$1,$8,$9*
0 Add four rect primitives between the rounded corners*
20,1,$1+$1,$2,$3,$4,$5,0*
20,1,$1+$1,$4,$5,$6,$7,0*
20,1,$1+$1,$6,$7,$8,$9,0*
20,1,$1+$1,$8,$9,$2,$3,0*%
G04 Aperture macros list end*
%ADD10RoundRect,0.178750X-0.218750X-0.256250X0.218750X-0.256250X0.218750X0.256250X-0.218750X0.256250X0*%
%ADD11R,1.420000X0.820000*%
%ADD12R,0.820000X0.820000*%
%ADD13RoundRect,0.185000X-0.225000X-0.250000X0.225000X-0.250000X0.225000X0.250000X-0.225000X0.250000X0*%
%ADD14RoundRect,0.160000X0.275000X-0.200000X0.275000X0.200000X-0.275000X0.200000X-0.275000X-0.200000X0*%
%ADD15R,1.920000X0.620000*%
%ADD16R,1.320000X2.620000*%
%ADD17R,2.520000X0.920000*%
%ADD18R,1.120000X1.120000*%
%ADD19R,2.520000X1.420000*%
%ADD20RoundRect,0.185000X0.250000X-0.225000X0.250000X0.225000X-0.250000X0.225000X-0.250000X-0.225000X0*%
%ADD21RoundRect,0.178750X0.218750X0.256250X-0.218750X0.256250X-0.218750X-0.256250X0.218750X-0.256250X0*%
%ADD22RoundRect,0.060000X0.100000X-0.637500X0.100000X0.637500X-0.100000X0.637500X-0.100000X-0.637500X0*%
%ADD23R,0.920000X0.670000*%
%ADD24RoundRect,0.110000X0.150000X-0.587500X0.150000X0.587500X-0.150000X0.587500X-0.150000X-0.587500X0*%
%ADD25RoundRect,0.160000X-0.200000X-0.275000X0.200000X-0.275000X0.200000X0.275000X-0.200000X0.275000X0*%
%ADD26R,0.420000X0.720000*%
%ADD27R,0.320000X0.720000*%
%ADD28RoundRect,0.185000X0.225000X0.250000X-0.225000X0.250000X-0.225000X-0.250000X0.225000X-0.250000X0*%
%ADD29RoundRect,0.210000X-0.375000X-0.625000X0.375000X-0.625000X0.375000X0.625000X-0.375000X0.625000X0*%
%ADD30RoundRect,0.160000X0.200000X0.275000X-0.200000X0.275000X-0.200000X-0.275000X0.200000X-0.275000X0*%
%ADD31R,0.920000X1.320000*%
%ADD32R,0.720000X1.320000*%
%ADD33R,1.920000X0.530000*%
%ADD34R,3.520000X2.600000*%
%ADD35RoundRect,0.010000X0.287500X-0.050000X0.287500X0.050000X-0.287500X0.050000X-0.287500X-0.050000X0*%
%ADD36RoundRect,0.060000X0.675000X-0.100000X0.675000X0.100000X-0.675000X0.100000X-0.675000X-0.100000X0*%
%ADD37RoundRect,0.110000X0.150000X-0.512500X0.150000X0.512500X-0.150000X0.512500X-0.150000X-0.512500X0*%
%ADD38RoundRect,0.210000X0.262500X0.450000X-0.262500X0.450000X-0.262500X-0.450000X0.262500X-0.450000X0*%
%ADD39RoundRect,0.185000X-0.250000X0.225000X-0.250000X-0.225000X0.250000X-0.225000X0.250000X0.225000X0*%
%ADD40R,0.720000X0.420000*%
%ADD41R,0.720000X0.320000*%
%ADD42RoundRect,0.225000X0.225000X0.225000X-0.225000X0.225000X-0.225000X-0.225000X0.225000X-0.225000X0*%
%ADD43RoundRect,0.022500X0.337500X0.062500X-0.337500X0.062500X-0.337500X-0.062500X0.337500X-0.062500X0*%
%ADD44RoundRect,0.022500X0.062500X0.337500X-0.062500X0.337500X-0.062500X-0.337500X0.062500X-0.337500X0*%
%ADD45R,1.320000X0.220000*%
G04 APERTURE END LIST*
D10*
%TO.C,L2*%
X151358500Y-50038000D03*
X152933500Y-50038000D03*
%TD*%
D11*
%TO.C,U2*%
X95896000Y-49398000D03*
X95896000Y-50668000D03*
X95896000Y-51938000D03*
X95896000Y-53208000D03*
X95896000Y-54478000D03*
X95896000Y-55748000D03*
X95896000Y-57018000D03*
X95896000Y-58288000D03*
X95896000Y-59558000D03*
X95896000Y-60828000D03*
X95896000Y-62098000D03*
X95896000Y-63368000D03*
X95896000Y-64638000D03*
X95896000Y-65908000D03*
X95896000Y-67178000D03*
X95896000Y-68448000D03*
X95896000Y-69718000D03*
X95896000Y-70988000D03*
X95896000Y-72258000D03*
X113396000Y-72258000D03*
X113396000Y-70988000D03*
X113396000Y-69718000D03*
X113396000Y-68448000D03*
X113396000Y-67178000D03*
X113396000Y-65908000D03*
X113396000Y-64638000D03*
X113396000Y-63368000D03*
X113396000Y-62098000D03*
X113396000Y-60828000D03*
X113396000Y-59558000D03*
X113396000Y-58288000D03*
X113396000Y-57018000D03*
X113396000Y-55748000D03*
X113396000Y-54478000D03*
X113396000Y-53208000D03*
X113396000Y-51938000D03*
X113396000Y-50668000D03*
X113396000Y-49398000D03*
D12*
X101746000Y-55798000D03*
X103146000Y-55798000D03*
X104546000Y-55798000D03*
X101746000Y-57198000D03*
X103146000Y-57198000D03*
X104546000Y-57198000D03*
X101746000Y-58598000D03*
X103146000Y-58598000D03*
X104546000Y-58598000D03*
%TD*%
D13*
%TO.C,C13*%
X80632000Y-73152000D03*
X82182000Y-73152000D03*
%TD*%
D14*
%TO.C,R19*%
X127381000Y-66484000D03*
X127381000Y-64834000D03*
%TD*%
D15*
%TO.C,J2*%
X157351000Y-72581000D03*
X157351000Y-73681000D03*
X157351000Y-74781000D03*
X157351000Y-75881000D03*
X157351000Y-76981000D03*
X157351000Y-78081000D03*
X157351000Y-79181000D03*
X157351000Y-80281000D03*
D16*
X144651000Y-73981000D03*
D17*
X156851000Y-82381000D03*
D18*
X144551000Y-70981000D03*
D19*
X156851000Y-69031000D03*
D16*
X144651000Y-78931000D03*
%TD*%
D20*
%TO.C,C6*%
X93470000Y-50686000D03*
X93470000Y-49136000D03*
%TD*%
D21*
%TO.C,L1*%
X146710500Y-48768000D03*
X145135500Y-48768000D03*
%TD*%
D22*
%TO.C,U5*%
X98787000Y-80586500D03*
X99437000Y-80586500D03*
X100087000Y-80586500D03*
X100737000Y-80586500D03*
X101387000Y-80586500D03*
X102037000Y-80586500D03*
X102687000Y-80586500D03*
X103337000Y-80586500D03*
X103987000Y-80586500D03*
X104637000Y-80586500D03*
X105287000Y-80586500D03*
X105937000Y-80586500D03*
X105937000Y-74861500D03*
X105287000Y-74861500D03*
X104637000Y-74861500D03*
X103987000Y-74861500D03*
X103337000Y-74861500D03*
X102687000Y-74861500D03*
X102037000Y-74861500D03*
X101387000Y-74861500D03*
X100737000Y-74861500D03*
X100087000Y-74861500D03*
X99437000Y-74861500D03*
X98787000Y-74861500D03*
%TD*%
D23*
%TO.C,SW4*%
X142573000Y-86987000D03*
X136573000Y-86987000D03*
X136573000Y-90737000D03*
X142573000Y-90737000D03*
%TD*%
D24*
%TO.C,Q1*%
X123891000Y-67231500D03*
X125791000Y-67231500D03*
X124841000Y-65356500D03*
%TD*%
D25*
%TO.C,R18*%
X126810000Y-69088000D03*
X128460000Y-69088000D03*
%TD*%
D26*
%TO.C,RN1*%
X136976000Y-72401000D03*
D27*
X137776000Y-72401000D03*
X138576000Y-72401000D03*
D26*
X139376000Y-72401000D03*
X139376000Y-70601000D03*
D27*
X138576000Y-70601000D03*
X137776000Y-70601000D03*
D26*
X136976000Y-70601000D03*
%TD*%
D13*
%TO.C,C2*%
X151625000Y-66421000D03*
X153175000Y-66421000D03*
%TD*%
D20*
%TO.C,C10*%
X136398000Y-55004000D03*
X136398000Y-53454000D03*
%TD*%
%TO.C,C7*%
X91679000Y-50686000D03*
X91679000Y-49136000D03*
%TD*%
D23*
%TO.C,SW2*%
X128572000Y-86987000D03*
X134572000Y-86987000D03*
X128572000Y-90737000D03*
X134572000Y-90737000D03*
%TD*%
D20*
%TO.C,C8*%
X138049000Y-55004000D03*
X138049000Y-53454000D03*
%TD*%
D28*
%TO.C,C16*%
X148222000Y-46990000D03*
X146672000Y-46990000D03*
%TD*%
D29*
%TO.C,F1*%
X144142000Y-44831000D03*
X146942000Y-44831000D03*
%TD*%
D30*
%TO.C,R14*%
X130873000Y-45339000D03*
X129223000Y-45339000D03*
%TD*%
D31*
%TO.C,U3*%
X140728000Y-58123000D03*
D32*
X142428000Y-58123000D03*
X142428000Y-55923000D03*
X140528000Y-55923000D03*
%TD*%
D28*
%TO.C,C9*%
X133236000Y-52959000D03*
X131686000Y-52959000D03*
%TD*%
D10*
%TO.C,LED3*%
X126085500Y-45339000D03*
X127660500Y-45339000D03*
%TD*%
D33*
%TO.C,J4*%
X75331000Y-61518000D03*
X75331000Y-62518000D03*
X75331000Y-63518000D03*
X75331000Y-64518000D03*
X75331000Y-65518000D03*
X75331000Y-66518000D03*
X75331000Y-67518000D03*
X75331000Y-68518000D03*
X75331000Y-69518000D03*
X75331000Y-70518000D03*
X75331000Y-71518000D03*
X75331000Y-72518000D03*
D34*
X72531000Y-58528000D03*
X72531000Y-75508000D03*
%TD*%
D35*
%TO.C,D1*%
X140024500Y-77162000D03*
X140899500Y-77162000D03*
X140024500Y-76662000D03*
X140899500Y-76662000D03*
D36*
X140462000Y-76162000D03*
D35*
X140899500Y-75662000D03*
X140024500Y-75662000D03*
X140899500Y-75162000D03*
X140024500Y-75162000D03*
%TD*%
D28*
%TO.C,C11*%
X95644000Y-74803000D03*
X94094000Y-74803000D03*
%TD*%
D10*
%TO.C,L3*%
X156057500Y-66421000D03*
X157632500Y-66421000D03*
%TD*%
D37*
%TO.C,U1*%
X136211000Y-48762500D03*
X137161000Y-48762500D03*
X138111000Y-48762500D03*
X138111000Y-46487500D03*
X136211000Y-46487500D03*
%TD*%
D38*
%TO.C,R4*%
X156487500Y-62990000D03*
X154662500Y-62990000D03*
%TD*%
D25*
%TO.C,R15*%
X95695000Y-78105000D03*
X97345000Y-78105000D03*
%TD*%
D30*
%TO.C,R10*%
X130873000Y-47117000D03*
X129223000Y-47117000D03*
%TD*%
D39*
%TO.C,C3*%
X93470000Y-52247000D03*
X93470000Y-53797000D03*
%TD*%
D10*
%TO.C,LED2*%
X126085500Y-47117000D03*
X127660500Y-47117000D03*
%TD*%
D40*
%TO.C,RN2*%
X109612000Y-78924000D03*
D41*
X109612000Y-78124000D03*
X109612000Y-77324000D03*
D40*
X109612000Y-76524000D03*
X107812000Y-76524000D03*
D41*
X107812000Y-77324000D03*
X107812000Y-78124000D03*
D40*
X107812000Y-78924000D03*
%TD*%
D42*
%TO.C,U4*%
X130196000Y-57150000D03*
X130196000Y-56030000D03*
X132436000Y-57150000D03*
X131316000Y-56030000D03*
X131316000Y-57150000D03*
X132436000Y-56030000D03*
X131316000Y-58270000D03*
X132436000Y-58270000D03*
X130196000Y-58270000D03*
D43*
X133766000Y-58650000D03*
X133766000Y-58150000D03*
X133766000Y-57650000D03*
X133766000Y-57150000D03*
X133766000Y-56650000D03*
X133766000Y-56150000D03*
X133766000Y-55650000D03*
D44*
X132816000Y-54700000D03*
X132316000Y-54700000D03*
X131816000Y-54700000D03*
X131316000Y-54700000D03*
X130816000Y-54700000D03*
X130316000Y-54700000D03*
X129816000Y-54700000D03*
D43*
X128866000Y-55650000D03*
X128866000Y-56150000D03*
X128866000Y-56650000D03*
X128866000Y-57150000D03*
X128866000Y-57650000D03*
X128866000Y-58150000D03*
X128866000Y-58650000D03*
D44*
X129816000Y-59600000D03*
X130316000Y-59600000D03*
X130816000Y-59600000D03*
X131316000Y-59600000D03*
X131816000Y-59600000D03*
X132316000Y-59600000D03*
X132816000Y-59600000D03*
%TD*%
D28*
%TO.C,C4*%
X146571000Y-51816000D03*
X145021000Y-51816000D03*
%TD*%
%TO.C,C1*%
X150000000Y-64770000D03*
X148450000Y-64770000D03*
%TD*%
D25*
%TO.C,R11*%
X95695000Y-76454000D03*
X97345000Y-76454000D03*
%TD*%
D38*
%TO.C,R8*%
X156487500Y-49782000D03*
X154662500Y-49782000D03*
%TD*%
D30*
%TO.C,R2*%
X72961000Y-79629000D03*
X71311000Y-79629000D03*
%TD*%
D14*
%TO.C,R1*%
X91692000Y-53847000D03*
X91692000Y-52197000D03*
%TD*%
D30*
%TO.C,R9*%
X130873000Y-48895000D03*
X129223000Y-48895000D03*
%TD*%
D25*
%TO.C,R5*%
X148400000Y-66421000D03*
X150050000Y-66421000D03*
%TD*%
D30*
%TO.C,R3*%
X72961000Y-81280000D03*
X71311000Y-81280000D03*
%TD*%
D13*
%TO.C,C5*%
X137783000Y-44577000D03*
X139333000Y-44577000D03*
%TD*%
D24*
%TO.C,Q2*%
X128971000Y-67231500D03*
X130871000Y-67231500D03*
X129921000Y-65356500D03*
%TD*%
D45*
%TO.C,J1*%
X152304000Y-59736000D03*
X152304000Y-58936000D03*
X152304000Y-57636000D03*
X152304000Y-56636000D03*
X152304000Y-56136000D03*
X152304000Y-55136000D03*
X152304000Y-53836000D03*
X152304000Y-53036000D03*
X152304000Y-53336000D03*
X152304000Y-54136000D03*
X152304000Y-54636000D03*
X152304000Y-55636000D03*
X152304000Y-57136000D03*
X152304000Y-58136000D03*
X152304000Y-58636000D03*
X152304000Y-59436000D03*
%TD*%
D10*
%TO.C,LED1*%
X126085500Y-48895000D03*
X127660500Y-48895000D03*
%TD*%
D13*
%TO.C,C12*%
X80632000Y-71247000D03*
X82182000Y-71247000D03*
%TD*%
M02*
