%TF.GenerationSoftware,KiCad,Pcbnew,(6.0.8-1)-1*%
%TF.CreationDate,2022-11-25T14:48:04-05:00*%
%TF.ProjectId,smart-chessboard-controller,736d6172-742d-4636-9865-7373626f6172,B*%
%TF.SameCoordinates,Original*%
%TF.FileFunction,Paste,Top*%
%TF.FilePolarity,Positive*%
%FSLAX46Y46*%
G04 Gerber Fmt 4.6, Leading zero omitted, Abs format (unit mm)*
G04 Created by KiCad (PCBNEW (6.0.8-1)-1) date 2022-11-25 14:48:04*
%MOMM*%
%LPD*%
G01*
G04 APERTURE LIST*
G04 Aperture macros list*
%AMRoundRect*
0 Rectangle with rounded corners*
0 $1 Rounding radius*
0 $2 $3 $4 $5 $6 $7 $8 $9 X,Y pos of 4 corners*
0 Add a 4 corners polygon primitive as box body*
4,1,4,$2,$3,$4,$5,$6,$7,$8,$9,$2,$3,0*
0 Add four circle primitives for the rounded corners*
1,1,$1+$1,$2,$3*
1,1,$1+$1,$4,$5*
1,1,$1+$1,$6,$7*
1,1,$1+$1,$8,$9*
0 Add four rect primitives between the rounded corners*
20,1,$1+$1,$2,$3,$4,$5,0*
20,1,$1+$1,$4,$5,$6,$7,0*
20,1,$1+$1,$6,$7,$8,$9,0*
20,1,$1+$1,$8,$9,$2,$3,0*%
G04 Aperture macros list end*
%ADD10RoundRect,0.218750X-0.218750X-0.256250X0.218750X-0.256250X0.218750X0.256250X-0.218750X0.256250X0*%
%ADD11R,1.500000X0.900000*%
%ADD12R,0.900000X1.500000*%
%ADD13R,1.050000X1.050000*%
%ADD14RoundRect,0.200000X0.275000X-0.200000X0.275000X0.200000X-0.275000X0.200000X-0.275000X-0.200000X0*%
%ADD15R,2.000000X0.700000*%
%ADD16R,1.400000X2.700000*%
%ADD17R,2.600000X1.000000*%
%ADD18R,1.200000X1.200000*%
%ADD19R,2.600000X1.500000*%
%ADD20RoundRect,0.225000X0.250000X-0.225000X0.250000X0.225000X-0.250000X0.225000X-0.250000X-0.225000X0*%
%ADD21RoundRect,0.250000X0.325000X0.450000X-0.325000X0.450000X-0.325000X-0.450000X0.325000X-0.450000X0*%
%ADD22RoundRect,0.100000X0.100000X-0.637500X0.100000X0.637500X-0.100000X0.637500X-0.100000X-0.637500X0*%
%ADD23RoundRect,0.200000X0.200000X0.275000X-0.200000X0.275000X-0.200000X-0.275000X0.200000X-0.275000X0*%
%ADD24R,1.000000X0.750000*%
%ADD25RoundRect,0.150000X0.150000X-0.587500X0.150000X0.587500X-0.150000X0.587500X-0.150000X-0.587500X0*%
%ADD26RoundRect,0.200000X-0.200000X-0.275000X0.200000X-0.275000X0.200000X0.275000X-0.200000X0.275000X0*%
%ADD27RoundRect,0.225000X-0.225000X-0.250000X0.225000X-0.250000X0.225000X0.250000X-0.225000X0.250000X0*%
%ADD28RoundRect,0.200000X-0.275000X0.200000X-0.275000X-0.200000X0.275000X-0.200000X0.275000X0.200000X0*%
%ADD29RoundRect,0.250000X-0.375000X-1.075000X0.375000X-1.075000X0.375000X1.075000X-0.375000X1.075000X0*%
%ADD30R,1.000000X1.400000*%
%ADD31R,0.800000X1.400000*%
%ADD32RoundRect,0.225000X0.225000X0.250000X-0.225000X0.250000X-0.225000X-0.250000X0.225000X-0.250000X0*%
%ADD33RoundRect,0.218750X0.218750X0.256250X-0.218750X0.256250X-0.218750X-0.256250X0.218750X-0.256250X0*%
%ADD34R,2.000000X0.610000*%
%ADD35R,3.600000X2.680000*%
%ADD36RoundRect,0.050000X0.287500X-0.050000X0.287500X0.050000X-0.287500X0.050000X-0.287500X-0.050000X0*%
%ADD37RoundRect,0.100000X0.675000X-0.100000X0.675000X0.100000X-0.675000X0.100000X-0.675000X-0.100000X0*%
%ADD38R,1.600000X0.300000*%
%ADD39RoundRect,0.150000X0.150000X-0.512500X0.150000X0.512500X-0.150000X0.512500X-0.150000X-0.512500X0*%
%ADD40RoundRect,0.250000X0.262500X0.450000X-0.262500X0.450000X-0.262500X-0.450000X0.262500X-0.450000X0*%
%ADD41RoundRect,0.225000X-0.250000X0.225000X-0.250000X-0.225000X0.250000X-0.225000X0.250000X0.225000X0*%
%ADD42RoundRect,0.225000X0.225000X0.225000X-0.225000X0.225000X-0.225000X-0.225000X0.225000X-0.225000X0*%
%ADD43RoundRect,0.062500X0.337500X0.062500X-0.337500X0.062500X-0.337500X-0.062500X0.337500X-0.062500X0*%
%ADD44RoundRect,0.062500X0.062500X0.337500X-0.062500X0.337500X-0.062500X-0.337500X0.062500X-0.337500X0*%
%ADD45R,1.400000X0.300000*%
G04 APERTURE END LIST*
D10*
%TO.C,L2*%
X155422500Y-61722000D03*
X156997500Y-61722000D03*
%TD*%
D11*
%TO.C,U2*%
X99960000Y-61600000D03*
X99960000Y-62870000D03*
X99960000Y-64140000D03*
X99960000Y-65410000D03*
X99960000Y-66680000D03*
X99960000Y-67950000D03*
X99960000Y-69220000D03*
X99960000Y-70490000D03*
X99960000Y-71760000D03*
X99960000Y-73030000D03*
X99960000Y-74300000D03*
X99960000Y-75570000D03*
X99960000Y-76840000D03*
X99960000Y-78110000D03*
D12*
X103000000Y-79360000D03*
X104270000Y-79360000D03*
X105540000Y-79360000D03*
X106810000Y-79360000D03*
X108080000Y-79360000D03*
X109350000Y-79360000D03*
X110620000Y-79360000D03*
X111890000Y-79360000D03*
X113160000Y-79360000D03*
X114430000Y-79360000D03*
D11*
X117460000Y-78110000D03*
X117460000Y-76840000D03*
X117460000Y-75570000D03*
X117460000Y-74300000D03*
X117460000Y-73030000D03*
X117460000Y-71760000D03*
X117460000Y-70490000D03*
X117460000Y-69220000D03*
X117460000Y-67950000D03*
X117460000Y-66680000D03*
X117460000Y-65410000D03*
X117460000Y-64140000D03*
X117460000Y-62870000D03*
X117460000Y-61600000D03*
D13*
X109555000Y-68940000D03*
X106505000Y-68940000D03*
X106505000Y-70465000D03*
X109555000Y-70465000D03*
X109555000Y-67415000D03*
X108030000Y-70465000D03*
X106505000Y-67415000D03*
X108030000Y-68940000D03*
X108030000Y-67415000D03*
%TD*%
D14*
%TO.C,R19*%
X131445000Y-78168000D03*
X131445000Y-76518000D03*
%TD*%
D15*
%TO.C,J2*%
X161415000Y-84265000D03*
X161415000Y-85365000D03*
X161415000Y-86465000D03*
X161415000Y-87565000D03*
X161415000Y-88665000D03*
X161415000Y-89765000D03*
X161415000Y-90865000D03*
X161415000Y-91965000D03*
D16*
X148715000Y-85665000D03*
D17*
X160915000Y-94065000D03*
D18*
X148615000Y-82665000D03*
D19*
X160915000Y-80715000D03*
D16*
X148715000Y-90615000D03*
%TD*%
D20*
%TO.C,C6*%
X97534000Y-62802000D03*
X97534000Y-61252000D03*
%TD*%
D21*
%TO.C,L1*%
X151139000Y-60452000D03*
X149089000Y-60452000D03*
%TD*%
D22*
%TO.C,U5*%
X102341000Y-89603500D03*
X102991000Y-89603500D03*
X103641000Y-89603500D03*
X104291000Y-89603500D03*
X104941000Y-89603500D03*
X105591000Y-89603500D03*
X106241000Y-89603500D03*
X106891000Y-89603500D03*
X107541000Y-89603500D03*
X108191000Y-89603500D03*
X108841000Y-89603500D03*
X109491000Y-89603500D03*
X109491000Y-83878500D03*
X108841000Y-83878500D03*
X108191000Y-83878500D03*
X107541000Y-83878500D03*
X106891000Y-83878500D03*
X106241000Y-83878500D03*
X105591000Y-83878500D03*
X104941000Y-83878500D03*
X104291000Y-83878500D03*
X103641000Y-83878500D03*
X102991000Y-83878500D03*
X102341000Y-83878500D03*
%TD*%
D23*
%TO.C,R16*%
X114236000Y-84455000D03*
X112586000Y-84455000D03*
%TD*%
D24*
%TO.C,SW4*%
X146637000Y-98671000D03*
X140637000Y-98671000D03*
X140637000Y-102421000D03*
X146637000Y-102421000D03*
%TD*%
D25*
%TO.C,Q1*%
X127955000Y-78915500D03*
X129855000Y-78915500D03*
X128905000Y-77040500D03*
%TD*%
D26*
%TO.C,R18*%
X130874000Y-80772000D03*
X132524000Y-80772000D03*
%TD*%
D27*
%TO.C,C2*%
X155689000Y-78105000D03*
X157239000Y-78105000D03*
%TD*%
D20*
%TO.C,C10*%
X140462000Y-66307000D03*
X140462000Y-64757000D03*
%TD*%
%TO.C,C7*%
X95743000Y-62802000D03*
X95743000Y-61252000D03*
%TD*%
D24*
%TO.C,SW2*%
X132636000Y-98671000D03*
X138636000Y-98671000D03*
X132636000Y-102421000D03*
X138636000Y-102421000D03*
%TD*%
D28*
%TO.C,R7*%
X145288000Y-80709000D03*
X145288000Y-82359000D03*
%TD*%
D20*
%TO.C,C8*%
X142113000Y-66307000D03*
X142113000Y-64757000D03*
%TD*%
D29*
%TO.C,F1*%
X148331000Y-57112000D03*
X151131000Y-57112000D03*
%TD*%
D26*
%TO.C,R14*%
X82995000Y-59055000D03*
X84645000Y-59055000D03*
%TD*%
D30*
%TO.C,U3*%
X144792000Y-69807000D03*
D31*
X146492000Y-69807000D03*
X146492000Y-67607000D03*
X144592000Y-67607000D03*
%TD*%
D32*
%TO.C,C9*%
X137300000Y-64643000D03*
X135750000Y-64643000D03*
%TD*%
D33*
%TO.C,LED3*%
X87782500Y-59055000D03*
X86207500Y-59055000D03*
%TD*%
D34*
%TO.C,J4*%
X79395000Y-73202000D03*
X79395000Y-74202000D03*
X79395000Y-75202000D03*
X79395000Y-76202000D03*
X79395000Y-77202000D03*
X79395000Y-78202000D03*
X79395000Y-79202000D03*
X79395000Y-80202000D03*
X79395000Y-81202000D03*
X79395000Y-82202000D03*
X79395000Y-83202000D03*
X79395000Y-84202000D03*
D35*
X76595000Y-70212000D03*
X76595000Y-87192000D03*
%TD*%
D36*
%TO.C,D1*%
X144088500Y-88846000D03*
X144963500Y-88846000D03*
X144088500Y-88346000D03*
X144963500Y-88346000D03*
D37*
X144526000Y-87846000D03*
D36*
X144963500Y-87346000D03*
X144088500Y-87346000D03*
X144963500Y-86846000D03*
X144088500Y-86846000D03*
%TD*%
D32*
%TO.C,C11*%
X100216000Y-83693000D03*
X98666000Y-83693000D03*
%TD*%
D23*
%TO.C,R17*%
X114236000Y-87503000D03*
X112586000Y-87503000D03*
%TD*%
D10*
%TO.C,L3*%
X160121500Y-78105000D03*
X161696500Y-78105000D03*
%TD*%
D38*
%TO.C,U6*%
X89330000Y-74762000D03*
X89330000Y-74112000D03*
X89330000Y-73462000D03*
X89330000Y-72812000D03*
X85930000Y-72812000D03*
X85930000Y-73462000D03*
X85930000Y-74112000D03*
X85930000Y-74762000D03*
%TD*%
D39*
%TO.C,U1*%
X140275000Y-61169500D03*
X141225000Y-61169500D03*
X142175000Y-61169500D03*
X142175000Y-58894500D03*
X140275000Y-58894500D03*
%TD*%
D23*
%TO.C,R13*%
X114236000Y-89027000D03*
X112586000Y-89027000D03*
%TD*%
D40*
%TO.C,R4*%
X160551500Y-74674000D03*
X158726500Y-74674000D03*
%TD*%
D26*
%TO.C,R15*%
X98616000Y-87630000D03*
X100266000Y-87630000D03*
%TD*%
%TO.C,R10*%
X82995000Y-57277000D03*
X84645000Y-57277000D03*
%TD*%
D41*
%TO.C,C3*%
X97534000Y-64363000D03*
X97534000Y-65913000D03*
%TD*%
D33*
%TO.C,LED2*%
X87782500Y-57277000D03*
X86207500Y-57277000D03*
%TD*%
D14*
%TO.C,R6*%
X142748000Y-86169000D03*
X142748000Y-84519000D03*
%TD*%
D42*
%TO.C,U4*%
X134260000Y-68834000D03*
X134260000Y-67714000D03*
X136500000Y-68834000D03*
X135380000Y-67714000D03*
X135380000Y-68834000D03*
X136500000Y-67714000D03*
X135380000Y-69954000D03*
X136500000Y-69954000D03*
X134260000Y-69954000D03*
D43*
X137830000Y-70334000D03*
X137830000Y-69834000D03*
X137830000Y-69334000D03*
X137830000Y-68834000D03*
X137830000Y-68334000D03*
X137830000Y-67834000D03*
X137830000Y-67334000D03*
D44*
X136880000Y-66384000D03*
X136380000Y-66384000D03*
X135880000Y-66384000D03*
X135380000Y-66384000D03*
X134880000Y-66384000D03*
X134380000Y-66384000D03*
X133880000Y-66384000D03*
D43*
X132930000Y-67334000D03*
X132930000Y-67834000D03*
X132930000Y-68334000D03*
X132930000Y-68834000D03*
X132930000Y-69334000D03*
X132930000Y-69834000D03*
X132930000Y-70334000D03*
D44*
X133880000Y-71284000D03*
X134380000Y-71284000D03*
X134880000Y-71284000D03*
X135380000Y-71284000D03*
X135880000Y-71284000D03*
X136380000Y-71284000D03*
X136880000Y-71284000D03*
%TD*%
D27*
%TO.C,C4*%
X135750000Y-62992000D03*
X137300000Y-62992000D03*
%TD*%
D32*
%TO.C,C1*%
X154064000Y-78105000D03*
X152514000Y-78105000D03*
%TD*%
D26*
%TO.C,R11*%
X98616000Y-86106000D03*
X100266000Y-86106000D03*
%TD*%
D40*
%TO.C,R8*%
X160551500Y-61466000D03*
X158726500Y-61466000D03*
%TD*%
D14*
%TO.C,R2*%
X140208000Y-87312000D03*
X140208000Y-85662000D03*
%TD*%
%TO.C,R1*%
X95756000Y-65963000D03*
X95756000Y-64313000D03*
%TD*%
D26*
%TO.C,R9*%
X82995000Y-55499000D03*
X84645000Y-55499000D03*
%TD*%
D28*
%TO.C,R5*%
X142748000Y-89726000D03*
X142748000Y-91376000D03*
%TD*%
D14*
%TO.C,R3*%
X145542000Y-93154000D03*
X145542000Y-91504000D03*
%TD*%
D27*
%TO.C,C5*%
X141847000Y-56984000D03*
X143397000Y-56984000D03*
%TD*%
D25*
%TO.C,Q2*%
X133035000Y-78915500D03*
X134935000Y-78915500D03*
X133985000Y-77040500D03*
%TD*%
D23*
%TO.C,R12*%
X114236000Y-85979000D03*
X112586000Y-85979000D03*
%TD*%
D45*
%TO.C,J1*%
X156368000Y-71420000D03*
X156368000Y-70620000D03*
X156368000Y-69320000D03*
X156368000Y-68320000D03*
X156368000Y-67820000D03*
X156368000Y-66820000D03*
X156368000Y-65520000D03*
X156368000Y-64720000D03*
X156368000Y-65020000D03*
X156368000Y-65820000D03*
X156368000Y-66320000D03*
X156368000Y-67320000D03*
X156368000Y-68820000D03*
X156368000Y-69820000D03*
X156368000Y-70320000D03*
X156368000Y-71120000D03*
%TD*%
D33*
%TO.C,LED1*%
X87782500Y-55499000D03*
X86207500Y-55499000D03*
%TD*%
M02*
