M48
; DRILL file {KiCad (6.0.8-1)-1} date Friday, November 25, 2022 at 05:34:25 PM
; FORMAT={-:-/ absolute / inch / decimal}
; #@! TF.CreationDate,2022-11-25T17:34:25-05:00
; #@! TF.GenerationSoftware,Kicad,Pcbnew,(6.0.8-1)-1
; #@! TF.FileFunction,NonPlated,1,4,NPTH
FMAT,2
INCH
; #@! TA.AperFunction,NonPlated,NPTH,ComponentDrill
T1C0.0197
; #@! TA.AperFunction,NonPlated,NPTH,ComponentDrill
T2C0.0236
; #@! TA.AperFunction,NonPlated,NPTH,ComponentDrill
T3C0.0390
; #@! TA.AperFunction,NonPlated,NPTH,ComponentDrill
T4C0.0709
%
G90
G05
T1
X3.2609Y-4.1029
X3.2609Y-4.2211
X3.2609Y-4.9209
X3.2609Y-5.0391
X3.2906Y-4.1029
X3.2906Y-4.2211
X3.2906Y-4.9209
X3.2906Y-5.0391
X3.3203Y-4.1029
X3.3203Y-4.2211
X3.3203Y-4.9209
X3.3203Y-5.0391
X3.35Y-4.1029
X3.35Y-4.2211
X3.35Y-4.9209
X3.35Y-5.0391
X3.3797Y-4.1029
X3.3797Y-4.2211
X3.3797Y-4.9209
X3.3797Y-5.0391
X3.4094Y-4.1029
X3.4094Y-4.2211
X3.4094Y-4.9209
X3.4094Y-5.0391
X3.4391Y-4.1029
X3.4391Y-4.2211
X3.4391Y-4.9209
X3.4391Y-5.0391
X5.9159Y-4.1029
X5.9159Y-4.2211
X5.9159Y-4.9209
X5.9159Y-5.0391
X5.9456Y-4.1029
X5.9456Y-4.2211
X5.9456Y-4.9209
X5.9456Y-5.0391
X5.9753Y-4.1029
X5.9753Y-4.2211
X5.9753Y-4.9209
X5.9753Y-5.0391
X6.005Y-4.1029
X6.005Y-4.2211
X6.005Y-4.9209
X6.005Y-5.0391
X6.0347Y-4.1029
X6.0347Y-4.2211
X6.0347Y-4.9209
X6.0347Y-5.0391
X6.0644Y-4.1029
X6.0644Y-4.2211
X6.0644Y-4.9209
X6.0644Y-5.0391
X6.0941Y-4.1029
X6.0941Y-4.2211
X6.0941Y-4.9209
X6.0941Y-5.0391
T2
X6.2015Y-2.7937
T3
X4.98Y-2.82
X5.02Y-2.62
X5.06Y-2.82
T4
X5.7426Y-4.3938
X5.7426Y-4.7482
X5.7426Y-5.2228
X5.7426Y-5.5772
T2
G00X6.2015Y-2.573
M15
G01X6.2015Y-2.5593
M16
G05
T0
M30
