%TF.GenerationSoftware,KiCad,Pcbnew,(6.0.8-1)-1*%
%TF.CreationDate,2023-01-11T14:40:22-05:00*%
%TF.ProjectId,smart-chessboard-controller,736d6172-742d-4636-9865-7373626f6172,C*%
%TF.SameCoordinates,Original*%
%TF.FileFunction,Soldermask,Top*%
%TF.FilePolarity,Negative*%
%FSLAX46Y46*%
G04 Gerber Fmt 4.6, Leading zero omitted, Abs format (unit mm)*
G04 Created by KiCad (PCBNEW (6.0.8-1)-1) date 2023-01-11 14:40:22*
%MOMM*%
%LPD*%
G01*
G04 APERTURE LIST*
G04 Aperture macros list*
%AMRoundRect*
0 Rectangle with rounded corners*
0 $1 Rounding radius*
0 $2 $3 $4 $5 $6 $7 $8 $9 X,Y pos of 4 corners*
0 Add a 4 corners polygon primitive as box body*
4,1,4,$2,$3,$4,$5,$6,$7,$8,$9,$2,$3,0*
0 Add four circle primitives for the rounded corners*
1,1,$1+$1,$2,$3*
1,1,$1+$1,$4,$5*
1,1,$1+$1,$6,$7*
1,1,$1+$1,$8,$9*
0 Add four rect primitives between the rounded corners*
20,1,$1+$1,$2,$3,$4,$5,0*
20,1,$1+$1,$4,$5,$6,$7,0*
20,1,$1+$1,$6,$7,$8,$9,0*
20,1,$1+$1,$8,$9,$2,$3,0*%
G04 Aperture macros list end*
%ADD10C,4.700000*%
%ADD11C,3.100000*%
%ADD12RoundRect,0.218750X-0.218750X-0.256250X0.218750X-0.256250X0.218750X0.256250X-0.218750X0.256250X0*%
%ADD13R,1.500000X0.900000*%
%ADD14R,0.900000X0.900000*%
%ADD15RoundRect,0.225000X-0.225000X-0.250000X0.225000X-0.250000X0.225000X0.250000X-0.225000X0.250000X0*%
%ADD16RoundRect,0.200000X0.275000X-0.200000X0.275000X0.200000X-0.275000X0.200000X-0.275000X-0.200000X0*%
%ADD17R,2.000000X0.700000*%
%ADD18R,1.400000X2.700000*%
%ADD19R,2.600000X1.000000*%
%ADD20R,1.200000X1.200000*%
%ADD21R,2.600000X1.500000*%
%ADD22RoundRect,0.225000X0.250000X-0.225000X0.250000X0.225000X-0.250000X0.225000X-0.250000X-0.225000X0*%
%ADD23RoundRect,0.218750X0.218750X0.256250X-0.218750X0.256250X-0.218750X-0.256250X0.218750X-0.256250X0*%
%ADD24RoundRect,0.100000X0.100000X-0.637500X0.100000X0.637500X-0.100000X0.637500X-0.100000X-0.637500X0*%
%ADD25RoundRect,0.250000X-0.350000X-0.625000X0.350000X-0.625000X0.350000X0.625000X-0.350000X0.625000X0*%
%ADD26O,1.200000X1.750000*%
%ADD27R,1.000000X0.750000*%
%ADD28RoundRect,0.150000X0.150000X-0.587500X0.150000X0.587500X-0.150000X0.587500X-0.150000X-0.587500X0*%
%ADD29RoundRect,0.200000X-0.200000X-0.275000X0.200000X-0.275000X0.200000X0.275000X-0.200000X0.275000X0*%
%ADD30R,0.500000X0.800000*%
%ADD31R,0.400000X0.800000*%
%ADD32RoundRect,0.225000X0.225000X0.250000X-0.225000X0.250000X-0.225000X-0.250000X0.225000X-0.250000X0*%
%ADD33RoundRect,0.250000X-0.375000X-0.625000X0.375000X-0.625000X0.375000X0.625000X-0.375000X0.625000X0*%
%ADD34RoundRect,0.200000X0.200000X0.275000X-0.200000X0.275000X-0.200000X-0.275000X0.200000X-0.275000X0*%
%ADD35R,1.000000X1.400000*%
%ADD36R,0.800000X1.400000*%
%ADD37R,2.000000X0.610000*%
%ADD38R,3.600000X2.680000*%
%ADD39RoundRect,0.050000X0.287500X-0.050000X0.287500X0.050000X-0.287500X0.050000X-0.287500X-0.050000X0*%
%ADD40RoundRect,0.100000X0.675000X-0.100000X0.675000X0.100000X-0.675000X0.100000X-0.675000X-0.100000X0*%
%ADD41RoundRect,0.150000X0.150000X-0.512500X0.150000X0.512500X-0.150000X0.512500X-0.150000X-0.512500X0*%
%ADD42RoundRect,0.250000X0.262500X0.450000X-0.262500X0.450000X-0.262500X-0.450000X0.262500X-0.450000X0*%
%ADD43RoundRect,0.225000X-0.250000X0.225000X-0.250000X-0.225000X0.250000X-0.225000X0.250000X0.225000X0*%
%ADD44R,0.800000X0.500000*%
%ADD45R,0.800000X0.400000*%
%ADD46RoundRect,0.062500X0.337500X0.062500X-0.337500X0.062500X-0.337500X-0.062500X0.337500X-0.062500X0*%
%ADD47RoundRect,0.062500X0.062500X0.337500X-0.062500X0.337500X-0.062500X-0.337500X0.062500X-0.337500X0*%
%ADD48R,3.350000X3.350000*%
%ADD49C,0.600000*%
%ADD50O,0.600000X0.950000*%
%ADD51R,1.400000X0.300000*%
%ADD52O,2.000000X1.200000*%
%ADD53O,2.300000X1.200000*%
%ADD54C,0.800000*%
G04 APERTURE END LIST*
D10*
%TO.C,H8*%
X74168000Y-88138000D03*
D11*
X74168000Y-88138000D03*
%TD*%
D12*
%TO.C,L2*%
X151358500Y-50038000D03*
X152933500Y-50038000D03*
%TD*%
D10*
%TO.C,H7*%
X154432000Y-88138000D03*
D11*
X154432000Y-88138000D03*
%TD*%
D13*
%TO.C,U2*%
X95896000Y-49398000D03*
X95896000Y-50668000D03*
X95896000Y-51938000D03*
X95896000Y-53208000D03*
X95896000Y-54478000D03*
X95896000Y-55748000D03*
X95896000Y-57018000D03*
X95896000Y-58288000D03*
X95896000Y-59558000D03*
X95896000Y-60828000D03*
X95896000Y-62098000D03*
X95896000Y-63368000D03*
X95896000Y-64638000D03*
X95896000Y-65908000D03*
X95896000Y-67178000D03*
X95896000Y-68448000D03*
X95896000Y-69718000D03*
X95896000Y-70988000D03*
X95896000Y-72258000D03*
X113396000Y-72258000D03*
X113396000Y-70988000D03*
X113396000Y-69718000D03*
X113396000Y-68448000D03*
X113396000Y-67178000D03*
X113396000Y-65908000D03*
X113396000Y-64638000D03*
X113396000Y-63368000D03*
X113396000Y-62098000D03*
X113396000Y-60828000D03*
X113396000Y-59558000D03*
X113396000Y-58288000D03*
X113396000Y-57018000D03*
X113396000Y-55748000D03*
X113396000Y-54478000D03*
X113396000Y-53208000D03*
X113396000Y-51938000D03*
X113396000Y-50668000D03*
X113396000Y-49398000D03*
D14*
X101746000Y-55798000D03*
X103146000Y-55798000D03*
X104546000Y-55798000D03*
X101746000Y-57198000D03*
X103146000Y-57198000D03*
X104546000Y-57198000D03*
X101746000Y-58598000D03*
X103146000Y-58598000D03*
X104546000Y-58598000D03*
%TD*%
D15*
%TO.C,C13*%
X80632000Y-73152000D03*
X82182000Y-73152000D03*
%TD*%
D16*
%TO.C,R19*%
X127381000Y-66484000D03*
X127381000Y-64834000D03*
%TD*%
D17*
%TO.C,J2*%
X157351000Y-72581000D03*
X157351000Y-73681000D03*
X157351000Y-74781000D03*
X157351000Y-75881000D03*
X157351000Y-76981000D03*
X157351000Y-78081000D03*
X157351000Y-79181000D03*
X157351000Y-80281000D03*
D18*
X144651000Y-73981000D03*
D19*
X156851000Y-82381000D03*
D20*
X144551000Y-70981000D03*
D21*
X156851000Y-69031000D03*
D18*
X144651000Y-78931000D03*
%TD*%
D22*
%TO.C,C6*%
X93470000Y-50686000D03*
X93470000Y-49136000D03*
%TD*%
D23*
%TO.C,L1*%
X146710500Y-48768000D03*
X145135500Y-48768000D03*
%TD*%
D24*
%TO.C,U5*%
X98787000Y-80586500D03*
X99437000Y-80586500D03*
X100087000Y-80586500D03*
X100737000Y-80586500D03*
X101387000Y-80586500D03*
X102037000Y-80586500D03*
X102687000Y-80586500D03*
X103337000Y-80586500D03*
X103987000Y-80586500D03*
X104637000Y-80586500D03*
X105287000Y-80586500D03*
X105937000Y-80586500D03*
X105937000Y-74861500D03*
X105287000Y-74861500D03*
X104637000Y-74861500D03*
X103987000Y-74861500D03*
X103337000Y-74861500D03*
X102687000Y-74861500D03*
X102037000Y-74861500D03*
X101387000Y-74861500D03*
X100737000Y-74861500D03*
X100087000Y-74861500D03*
X99437000Y-74861500D03*
X98787000Y-74861500D03*
%TD*%
D25*
%TO.C,J8*%
X104456000Y-85396000D03*
D26*
X106456000Y-85396000D03*
X108456000Y-85396000D03*
X110456000Y-85396000D03*
X112456000Y-85396000D03*
%TD*%
D27*
%TO.C,SW4*%
X142573000Y-86987000D03*
X136573000Y-86987000D03*
X136573000Y-90737000D03*
X142573000Y-90737000D03*
%TD*%
D28*
%TO.C,Q1*%
X123891000Y-67231500D03*
X125791000Y-67231500D03*
X124841000Y-65356500D03*
%TD*%
D29*
%TO.C,R18*%
X126810000Y-69088000D03*
X128460000Y-69088000D03*
%TD*%
D30*
%TO.C,RN1*%
X136976000Y-72401000D03*
D31*
X137776000Y-72401000D03*
X138576000Y-72401000D03*
D30*
X139376000Y-72401000D03*
X139376000Y-70601000D03*
D31*
X138576000Y-70601000D03*
X137776000Y-70601000D03*
D30*
X136976000Y-70601000D03*
%TD*%
D15*
%TO.C,C2*%
X151625000Y-66421000D03*
X153175000Y-66421000D03*
%TD*%
D22*
%TO.C,C10*%
X136398000Y-55004000D03*
X136398000Y-53454000D03*
%TD*%
%TO.C,C7*%
X91679000Y-50686000D03*
X91679000Y-49136000D03*
%TD*%
D27*
%TO.C,SW2*%
X128572000Y-86987000D03*
X134572000Y-86987000D03*
X128572000Y-90737000D03*
X134572000Y-90737000D03*
%TD*%
D22*
%TO.C,C8*%
X138049000Y-55004000D03*
X138049000Y-53454000D03*
%TD*%
D32*
%TO.C,C16*%
X148222000Y-46990000D03*
X146672000Y-46990000D03*
%TD*%
D33*
%TO.C,F1*%
X144142000Y-44831000D03*
X146942000Y-44831000D03*
%TD*%
D34*
%TO.C,R14*%
X130873000Y-45339000D03*
X129223000Y-45339000D03*
%TD*%
D35*
%TO.C,U3*%
X140728000Y-58123000D03*
D36*
X142428000Y-58123000D03*
X142428000Y-55923000D03*
X140528000Y-55923000D03*
%TD*%
D25*
%TO.C,J9*%
X91248000Y-85396000D03*
D26*
X93248000Y-85396000D03*
X95248000Y-85396000D03*
X97248000Y-85396000D03*
X99248000Y-85396000D03*
%TD*%
D25*
%TO.C,J5*%
X117648000Y-85396000D03*
D26*
X119648000Y-85396000D03*
X121648000Y-85396000D03*
X123648000Y-85396000D03*
%TD*%
D32*
%TO.C,C9*%
X133236000Y-52959000D03*
X131686000Y-52959000D03*
%TD*%
D12*
%TO.C,LED3*%
X126085500Y-45339000D03*
X127660500Y-45339000D03*
%TD*%
D37*
%TO.C,J4*%
X75331000Y-61518000D03*
X75331000Y-62518000D03*
X75331000Y-63518000D03*
X75331000Y-64518000D03*
X75331000Y-65518000D03*
X75331000Y-66518000D03*
X75331000Y-67518000D03*
X75331000Y-68518000D03*
X75331000Y-69518000D03*
X75331000Y-70518000D03*
X75331000Y-71518000D03*
X75331000Y-72518000D03*
D38*
X72531000Y-58528000D03*
X72531000Y-75508000D03*
%TD*%
D39*
%TO.C,D1*%
X140024500Y-77162000D03*
X140899500Y-77162000D03*
X140024500Y-76662000D03*
X140899500Y-76662000D03*
D40*
X140462000Y-76162000D03*
D39*
X140899500Y-75662000D03*
X140024500Y-75662000D03*
X140899500Y-75162000D03*
X140024500Y-75162000D03*
%TD*%
D32*
%TO.C,C11*%
X95644000Y-74803000D03*
X94094000Y-74803000D03*
%TD*%
D12*
%TO.C,L3*%
X156057500Y-66421000D03*
X157632500Y-66421000D03*
%TD*%
D41*
%TO.C,U1*%
X136211000Y-48762500D03*
X137161000Y-48762500D03*
X138111000Y-48762500D03*
X138111000Y-46487500D03*
X136211000Y-46487500D03*
%TD*%
D42*
%TO.C,R4*%
X156487500Y-62990000D03*
X154662500Y-62990000D03*
%TD*%
D29*
%TO.C,R15*%
X95695000Y-78105000D03*
X97345000Y-78105000D03*
%TD*%
D34*
%TO.C,R10*%
X130873000Y-47117000D03*
X129223000Y-47117000D03*
%TD*%
D43*
%TO.C,C3*%
X93470000Y-52247000D03*
X93470000Y-53797000D03*
%TD*%
D12*
%TO.C,LED2*%
X126085500Y-47117000D03*
X127660500Y-47117000D03*
%TD*%
D44*
%TO.C,RN2*%
X109612000Y-78924000D03*
D45*
X109612000Y-78124000D03*
X109612000Y-77324000D03*
D44*
X109612000Y-76524000D03*
X107812000Y-76524000D03*
D45*
X107812000Y-77324000D03*
X107812000Y-78124000D03*
D44*
X107812000Y-78924000D03*
%TD*%
D46*
%TO.C,U4*%
X133766000Y-58650000D03*
X133766000Y-58150000D03*
X133766000Y-57650000D03*
X133766000Y-57150000D03*
X133766000Y-56650000D03*
X133766000Y-56150000D03*
X133766000Y-55650000D03*
D47*
X132816000Y-54700000D03*
X132316000Y-54700000D03*
X131816000Y-54700000D03*
X131316000Y-54700000D03*
X130816000Y-54700000D03*
X130316000Y-54700000D03*
X129816000Y-54700000D03*
D46*
X128866000Y-55650000D03*
X128866000Y-56150000D03*
X128866000Y-56650000D03*
X128866000Y-57150000D03*
X128866000Y-57650000D03*
X128866000Y-58150000D03*
X128866000Y-58650000D03*
D47*
X129816000Y-59600000D03*
X130316000Y-59600000D03*
X130816000Y-59600000D03*
X131316000Y-59600000D03*
X131816000Y-59600000D03*
X132316000Y-59600000D03*
X132816000Y-59600000D03*
D48*
X131316000Y-57150000D03*
%TD*%
D32*
%TO.C,C4*%
X146571000Y-51816000D03*
X145021000Y-51816000D03*
%TD*%
%TO.C,C1*%
X150000000Y-64770000D03*
X148450000Y-64770000D03*
%TD*%
D29*
%TO.C,R11*%
X95695000Y-76454000D03*
X97345000Y-76454000D03*
%TD*%
D42*
%TO.C,R8*%
X156487500Y-49782000D03*
X154662500Y-49782000D03*
%TD*%
D11*
%TO.C,H6*%
X154432000Y-45974000D03*
D10*
X154432000Y-45974000D03*
%TD*%
D34*
%TO.C,R2*%
X72961000Y-79629000D03*
X71311000Y-79629000D03*
%TD*%
D16*
%TO.C,R1*%
X91692000Y-53847000D03*
X91692000Y-52197000D03*
%TD*%
D34*
%TO.C,R9*%
X130873000Y-48895000D03*
X129223000Y-48895000D03*
%TD*%
D29*
%TO.C,R5*%
X148400000Y-66421000D03*
X150050000Y-66421000D03*
%TD*%
D34*
%TO.C,R3*%
X72961000Y-81280000D03*
X71311000Y-81280000D03*
%TD*%
D11*
%TO.C,H5*%
X74168000Y-45974000D03*
D10*
X74168000Y-45974000D03*
%TD*%
D15*
%TO.C,C5*%
X137783000Y-44577000D03*
X139333000Y-44577000D03*
%TD*%
D28*
%TO.C,Q2*%
X128971000Y-67231500D03*
X130871000Y-67231500D03*
X129921000Y-65356500D03*
%TD*%
D49*
%TO.C,J1*%
X153454000Y-59276000D03*
D50*
X153454000Y-53496000D03*
D51*
X152304000Y-59736000D03*
X152304000Y-58936000D03*
X152304000Y-57636000D03*
X152304000Y-56636000D03*
X152304000Y-56136000D03*
X152304000Y-55136000D03*
X152304000Y-53836000D03*
X152304000Y-53036000D03*
X152304000Y-53336000D03*
X152304000Y-54136000D03*
X152304000Y-54636000D03*
X152304000Y-55636000D03*
X152304000Y-57136000D03*
X152304000Y-58136000D03*
X152304000Y-58636000D03*
X152304000Y-59436000D03*
D52*
X157154000Y-60711000D03*
X157154000Y-52061000D03*
D53*
X152879000Y-60711000D03*
X152879000Y-52061000D03*
%TD*%
D12*
%TO.C,LED1*%
X126085500Y-48895000D03*
X127660500Y-48895000D03*
%TD*%
D15*
%TO.C,C12*%
X80632000Y-71247000D03*
X82182000Y-71247000D03*
%TD*%
D54*
X85598000Y-62484000D03*
X136399000Y-43942000D03*
X94488000Y-76581000D03*
X136399000Y-44958000D03*
X130810000Y-44069000D03*
X109347000Y-75565000D03*
X90170000Y-54102000D03*
X151511000Y-65151000D03*
X153162000Y-74676000D03*
X73025000Y-78232000D03*
X89154000Y-50673000D03*
X135383000Y-44958000D03*
X79502000Y-73100500D03*
X141351000Y-69723000D03*
X135383000Y-43942000D03*
X154686000Y-66421000D03*
X140716000Y-59690000D03*
X73279000Y-62484000D03*
X93472000Y-55372000D03*
X157226000Y-48260000D03*
X97917000Y-49403000D03*
X73279000Y-69469000D03*
X146558000Y-53086000D03*
X143510000Y-76073000D03*
X139573000Y-46101000D03*
X73279000Y-71501000D03*
X130683000Y-57785000D03*
X107061000Y-80518000D03*
X97485200Y-79679800D03*
X97917000Y-67183000D03*
X150749000Y-52451000D03*
X93599000Y-72136000D03*
X130683000Y-56642000D03*
X73279000Y-65532000D03*
X144272000Y-90805000D03*
X137160000Y-47625000D03*
X150622000Y-48641000D03*
X131699000Y-51689000D03*
X131826000Y-56642000D03*
X150749000Y-60325000D03*
X136271000Y-58928000D03*
X154813000Y-78105000D03*
X149606000Y-46990000D03*
X82169000Y-69723000D03*
X89154000Y-65913000D03*
X111379000Y-49403000D03*
X90043000Y-49098000D03*
X127000000Y-90805000D03*
X147066000Y-64770000D03*
X139573000Y-53467000D03*
X73279000Y-67564000D03*
X82169000Y-74549000D03*
X131826000Y-57785000D03*
X126746000Y-55880000D03*
X136017000Y-52070000D03*
X101828600Y-72136000D03*
X90297000Y-52146000D03*
X124841000Y-63754000D03*
X79502000Y-71374000D03*
X142367000Y-51562000D03*
X78613000Y-70612000D03*
X142240000Y-48768000D03*
X142367000Y-50165000D03*
X143510000Y-50165000D03*
X135001000Y-54102000D03*
X143510000Y-51562000D03*
X143510000Y-48768000D03*
X154813000Y-79121000D03*
X142367000Y-78105000D03*
X115697000Y-58801000D03*
X139827000Y-73787000D03*
X131445000Y-69977000D03*
X138557000Y-77724000D03*
X133350000Y-70866000D03*
X142367000Y-76886500D03*
X115697000Y-60071000D03*
X154813000Y-76962000D03*
X154813000Y-74803000D03*
X136906000Y-75946000D03*
X116332000Y-50673000D03*
X142544122Y-75107122D03*
X134493000Y-70739000D03*
X137287000Y-74462500D03*
X132588000Y-68834000D03*
X121158000Y-62738000D03*
X150495000Y-53975000D03*
X142748000Y-44107000D03*
X141605000Y-45377000D03*
X149987000Y-54737000D03*
X149987000Y-58166000D03*
X150495000Y-58928000D03*
X141605000Y-44107000D03*
X149479000Y-58928000D03*
X149479000Y-53975000D03*
X148844000Y-54737000D03*
X148844000Y-58166000D03*
X142748000Y-45377000D03*
X146040232Y-57032768D03*
X137296768Y-59299232D03*
X145297768Y-57775232D03*
X138039232Y-58556768D03*
X146050000Y-73914000D03*
X114427000Y-79375000D03*
X116967000Y-57404000D03*
X116967000Y-53002500D03*
X133096000Y-67183000D03*
X129921000Y-63881000D03*
X125603000Y-62738000D03*
X71374000Y-78232000D03*
X73279000Y-63627000D03*
X102997000Y-66167000D03*
X93599000Y-58293000D03*
X101981000Y-65024000D03*
X93599000Y-59563000D03*
X93599000Y-68453000D03*
X93599000Y-65913000D03*
X130429000Y-60960000D03*
X127381000Y-63308500D03*
X71247000Y-82804000D03*
X72390000Y-64516000D03*
X136017000Y-79248000D03*
X136398000Y-73787000D03*
X99822000Y-77915500D03*
X111379000Y-64643000D03*
X99441000Y-70358000D03*
X111379000Y-55753000D03*
X100965000Y-69342000D03*
X111379000Y-51943000D03*
X156845000Y-83693000D03*
X146050000Y-78994000D03*
X146050000Y-70993000D03*
X156845000Y-70612000D03*
M02*
