%TF.GenerationSoftware,KiCad,Pcbnew,(6.0.8-1)-1*%
%TF.CreationDate,2022-11-25T17:34:24-05:00*%
%TF.ProjectId,smart-chessboard-controller,736d6172-742d-4636-9865-7373626f6172,B*%
%TF.SameCoordinates,Original*%
%TF.FileFunction,Profile,NP*%
%FSLAX46Y46*%
G04 Gerber Fmt 4.6, Leading zero omitted, Abs format (unit mm)*
G04 Created by KiCad (PCBNEW (6.0.8-1)-1) date 2022-11-25 17:34:24*
%MOMM*%
%LPD*%
G01*
G04 APERTURE LIST*
%TA.AperFunction,Profile*%
%ADD10C,0.100000*%
%TD*%
G04 APERTURE END LIST*
D10*
X73676051Y-55842000D02*
X73785000Y-101670949D01*
X163430949Y-109753400D02*
X163430949Y-122453400D01*
X76325000Y-104210949D02*
X81090000Y-104214800D01*
X122680000Y-59690000D02*
X94740000Y-59690000D01*
X76216051Y-53301951D02*
G75*
G03*
X73676051Y-55842000I49J-2540049D01*
G01*
X163320000Y-55842000D02*
G75*
G03*
X160780000Y-53302000I-2540000J0D01*
G01*
X76327000Y-124993400D02*
X81090000Y-124992000D01*
X89090000Y-107214800D02*
X148527000Y-107214800D01*
X160888949Y-104210949D02*
X156527000Y-104214800D01*
X160890949Y-145777949D02*
G75*
G03*
X163430949Y-143237949I-49J2540049D01*
G01*
X163430900Y-109753400D02*
G75*
G03*
X160890949Y-107213400I-2540000J0D01*
G01*
X163430851Y-130537949D02*
G75*
G03*
X160890949Y-127997949I-2539951J49D01*
G01*
X73784951Y-101670949D02*
G75*
G03*
X76325000Y-104210949I2540049J49D01*
G01*
X73787000Y-143237949D02*
X73787000Y-130537949D01*
X160890949Y-127997949D02*
X156527000Y-127992000D01*
X76327000Y-127997950D02*
G75*
G03*
X73787000Y-130537949I0J-2540000D01*
G01*
X76327000Y-107213400D02*
G75*
G03*
X73787000Y-109753400I0J-2540000D01*
G01*
X160890949Y-124993449D02*
G75*
G03*
X163430949Y-122453400I-49J2540049D01*
G01*
X89090000Y-127992000D02*
X148527000Y-127992000D01*
X73787000Y-122453400D02*
G75*
G03*
X76327000Y-124993400I2540000J0D01*
G01*
X163430949Y-130537949D02*
X163430949Y-143237949D01*
X73787000Y-122453400D02*
X73787000Y-109753400D01*
X148527000Y-104214800D02*
X89090000Y-104214800D01*
X163320000Y-55842000D02*
X163428949Y-101670949D01*
X81090000Y-127992000D02*
X76327000Y-127997949D01*
X156527000Y-107214800D02*
X160890949Y-107213400D01*
X122680000Y-53302000D02*
X122680000Y-59690000D01*
X94740000Y-59690000D02*
X94740000Y-53302000D01*
X160890949Y-124993400D02*
X156527000Y-124992000D01*
X148527000Y-124992000D02*
X89090000Y-124992000D01*
X160888949Y-104210949D02*
G75*
G03*
X163428949Y-101670949I-49J2540049D01*
G01*
X81090000Y-107214800D02*
X76327000Y-107213400D01*
X160890949Y-145777949D02*
X76327000Y-145777949D01*
X94740000Y-53302000D02*
X76216051Y-53302000D01*
X73786951Y-143237949D02*
G75*
G03*
X76327000Y-145777949I2540049J49D01*
G01*
X122680000Y-53302000D02*
X160780000Y-53302000D01*
%TO.C,mouse-bite-3mm-slot*%
X81090000Y-107214800D02*
G75*
G03*
X81090000Y-104214800I0J1500000D01*
G01*
X89090000Y-104214800D02*
G75*
G03*
X89090000Y-107214800I0J-1500000D01*
G01*
X156527000Y-124992000D02*
G75*
G03*
X156527000Y-127992000I0J-1500000D01*
G01*
X148527000Y-127992000D02*
G75*
G03*
X148527000Y-124992000I0J1500000D01*
G01*
X148527000Y-107214800D02*
G75*
G03*
X148527000Y-104214800I0J1500000D01*
G01*
X156527000Y-104214800D02*
G75*
G03*
X156527000Y-107214800I0J-1500000D01*
G01*
X81090000Y-127992000D02*
G75*
G03*
X81090000Y-124992000I0J1500000D01*
G01*
X89090000Y-124992000D02*
G75*
G03*
X89090000Y-127992000I0J-1500000D01*
G01*
%TD*%
M02*
