M48
; DRILL file {KiCad (6.0.8-1)-1} date Wednesday, January 11, 2023 at 03:45:59 PM
; FORMAT={-:-/ absolute / inch / decimal}
; #@! TF.CreationDate,2023-01-11T15:45:59-05:00
; #@! TF.GenerationSoftware,Kicad,Pcbnew,(6.0.8-1)-1
; #@! TF.FileFunction,Plated,1,4,PTH
FMAT,2
INCH
; #@! TA.AperFunction,Plated,PTH,ComponentDrill
T1C0.0079
; #@! TA.AperFunction,Plated,PTH,ViaDrill
T2C0.0157
; #@! TA.AperFunction,Plated,PTH,ComponentDrill
T3C0.0236
; #@! TA.AperFunction,Plated,PTH,ComponentDrill
T4C0.0295
; #@! TA.AperFunction,Plated,PTH,ComponentDrill
T5C0.1063
%
G90
G05
T1
X4.0057Y-2.2243
X4.0057Y-2.2794
X4.0333Y-2.1968
X4.0333Y-2.2519
X4.0333Y-2.307
X4.0609Y-2.2243
X4.0609Y-2.2794
X4.0884Y-2.1968
X4.0884Y-2.2519
X4.0884Y-2.307
X4.116Y-2.2243
X4.116Y-2.2794
T2
X2.805Y-3.26
X2.81Y-3.08
X2.85Y-2.54
X2.875Y-3.08
X2.885Y-2.46
X2.885Y-2.505
X2.885Y-2.58
X2.885Y-2.66
X2.885Y-2.735
X2.885Y-2.815
X3.095Y-2.78
X3.13Y-2.81
X3.13Y-2.878
X3.235Y-2.745
X3.235Y-2.935
X3.37Y-2.46
X3.51Y-1.995
X3.51Y-2.595
X3.545Y-1.933
X3.55Y-2.13
X3.555Y-2.053
X3.68Y-2.18
X3.685Y-2.295
X3.685Y-2.345
X3.685Y-2.595
X3.685Y-2.695
X3.685Y-2.84
X3.72Y-3.015
X3.838Y-3.137
X3.855Y-1.945
X3.855Y-2.645
X3.915Y-2.77
X3.93Y-3.0675
X3.975Y-2.73
X4.009Y-2.84
X4.015Y-2.56
X4.055Y-2.605
X4.215Y-3.17
X4.305Y-2.975
X4.385Y-1.945
X4.385Y-2.045
X4.385Y-2.195
X4.385Y-2.545
X4.505Y-3.125
X4.555Y-2.315
X4.555Y-2.365
X4.58Y-1.995
X4.605Y-2.0867
X4.605Y-2.26
X4.77Y-2.47
X4.915Y-2.51
X4.945Y-2.47
X4.99Y-2.2
X5.0Y-3.575
X5.015Y-2.4925
X5.115Y-2.515
X5.135Y-2.4
X5.145Y-2.23
X5.145Y-2.275
X5.15Y-1.735
X5.175Y-2.755
X5.185Y-2.035
X5.19Y-2.23
X5.19Y-2.275
X5.22Y-2.71
X5.24Y-2.645
X5.25Y-2.79
X5.295Y-2.785
X5.315Y-2.13
X5.33Y-1.73
X5.33Y-1.77
X5.355Y-2.05
X5.355Y-3.12
X5.365Y-2.32
X5.37Y-2.905
X5.37Y-1.73
X5.37Y-1.77
X5.39Y-2.99
X5.4Y-1.875
X5.405Y-2.9316
X5.4054Y-2.3346
X5.4346Y-2.3054
X5.455Y-3.06
X5.495Y-1.815
X5.495Y-2.105
X5.505Y-2.905
X5.54Y-2.35
X5.565Y-2.745
X5.575Y-1.7365
X5.575Y-1.7865
X5.6Y-1.92
X5.605Y-1.975
X5.605Y-2.03
X5.605Y-3.027
X5.605Y-3.075
X5.612Y-2.957
X5.62Y-1.7365
X5.62Y-1.7865
X5.65Y-1.92
X5.65Y-1.975
X5.65Y-2.03
X5.65Y-2.995
X5.68Y-3.575
X5.7204Y-2.2746
X5.7496Y-2.2454
X5.75Y-2.795
X5.75Y-2.91
X5.75Y-3.11
X5.77Y-2.09
X5.79Y-2.55
X5.86Y-2.155
X5.86Y-2.29
X5.885Y-2.125
X5.885Y-2.32
X5.89Y-1.85
X5.905Y-2.155
X5.905Y-2.29
X5.925Y-2.125
X5.925Y-2.32
X5.93Y-1.915
X5.935Y-2.065
X5.935Y-2.375
X5.965Y-2.565
X6.03Y-2.94
X6.09Y-2.615
X6.095Y-2.945
X6.095Y-3.03
X6.095Y-3.075
X6.095Y-3.115
X6.175Y-2.78
X6.175Y-3.295
X6.19Y-1.9
T4
X3.5924Y-3.362
X3.6712Y-3.362
X3.7499Y-3.362
X3.8287Y-3.362
X3.9074Y-3.362
X4.1124Y-3.362
X4.1912Y-3.362
X4.2699Y-3.362
X4.3487Y-3.362
X4.4274Y-3.362
X4.6318Y-3.362
X4.7106Y-3.362
X4.7893Y-3.362
X4.868Y-3.362
T5
X2.92Y-1.81
X2.92Y-3.47
X6.08Y-1.81
X6.08Y-3.47
T3
G00X5.9972Y-2.0496
M15
G01X6.0405Y-2.0496
M16
G05
G00X5.9972Y-2.3902
M15
G01X6.0405Y-2.3902
M16
G05
G00X6.1714Y-2.0496
M15
G01X6.2029Y-2.0496
M16
G05
G00X6.1714Y-2.3902
M15
G01X6.2029Y-2.3902
M16
G05
T0
M30
