%TF.GenerationSoftware,KiCad,Pcbnew,(6.0.8-1)-1*%
%TF.CreationDate,2022-11-25T17:34:24-05:00*%
%TF.ProjectId,smart-chessboard-controller,736d6172-742d-4636-9865-7373626f6172,B*%
%TF.SameCoordinates,Original*%
%TF.FileFunction,Legend,Bot*%
%TF.FilePolarity,Positive*%
%FSLAX46Y46*%
G04 Gerber Fmt 4.6, Leading zero omitted, Abs format (unit mm)*
G04 Created by KiCad (PCBNEW (6.0.8-1)-1) date 2022-11-25 17:34:24*
%MOMM*%
%LPD*%
G01*
G04 APERTURE LIST*
G04 Aperture macros list*
%AMRoundRect*
0 Rectangle with rounded corners*
0 $1 Rounding radius*
0 $2 $3 $4 $5 $6 $7 $8 $9 X,Y pos of 4 corners*
0 Add a 4 corners polygon primitive as box body*
4,1,4,$2,$3,$4,$5,$6,$7,$8,$9,$2,$3,0*
0 Add four circle primitives for the rounded corners*
1,1,$1+$1,$2,$3*
1,1,$1+$1,$4,$5*
1,1,$1+$1,$6,$7*
1,1,$1+$1,$8,$9*
0 Add four rect primitives between the rounded corners*
20,1,$1+$1,$2,$3,$4,$5,0*
20,1,$1+$1,$4,$5,$6,$7,0*
20,1,$1+$1,$6,$7,$8,$9,0*
20,1,$1+$1,$8,$9,$2,$3,0*%
G04 Aperture macros list end*
%ADD10C,0.150000*%
%ADD11C,0.120000*%
%ADD12C,4.700000*%
%ADD13C,3.100000*%
%ADD14R,1.700000X1.700000*%
%ADD15O,1.700000X1.700000*%
%ADD16O,3.048000X1.850000*%
%ADD17RoundRect,0.250000X-0.350000X-0.625000X0.350000X-0.625000X0.350000X0.625000X-0.350000X0.625000X0*%
%ADD18O,1.200000X1.750000*%
%ADD19C,0.991000*%
%ADD20C,0.500000*%
%ADD21C,0.600000*%
%ADD22O,0.600000X0.950000*%
%ADD23O,2.000000X1.200000*%
%ADD24O,2.300000X1.200000*%
%ADD25RoundRect,0.250000X0.350000X0.625000X-0.350000X0.625000X-0.350000X-0.625000X0.350000X-0.625000X0*%
%ADD26C,0.800000*%
G04 APERTURE END LIST*
D10*
%TO.C,J7*%
X89995333Y-131622380D02*
X89995333Y-132336666D01*
X90042952Y-132479523D01*
X90138190Y-132574761D01*
X90281047Y-132622380D01*
X90376285Y-132622380D01*
X89614380Y-131622380D02*
X88947714Y-131622380D01*
X89376285Y-132622380D01*
%TO.C,J6*%
X89605333Y-120385780D02*
X89605333Y-121100066D01*
X89652952Y-121242923D01*
X89748190Y-121338161D01*
X89891047Y-121385780D01*
X89986285Y-121385780D01*
X88700571Y-120385780D02*
X88891047Y-120385780D01*
X88986285Y-120433400D01*
X89033904Y-120481019D01*
X89129142Y-120623876D01*
X89176761Y-120814352D01*
X89176761Y-121195304D01*
X89129142Y-121290542D01*
X89081523Y-121338161D01*
X88986285Y-121385780D01*
X88795809Y-121385780D01*
X88700571Y-121338161D01*
X88652952Y-121290542D01*
X88605333Y-121195304D01*
X88605333Y-120957209D01*
X88652952Y-120861971D01*
X88700571Y-120814352D01*
X88795809Y-120766733D01*
X88986285Y-120766733D01*
X89081523Y-120814352D01*
X89129142Y-120861971D01*
X89176761Y-120957209D01*
D11*
%TO.C,J7*%
X84802000Y-134988000D02*
X84522000Y-134988000D01*
X94962000Y-131028000D02*
X93962000Y-131028000D01*
X86162000Y-133128000D02*
X93162000Y-133128000D01*
X84522000Y-136588000D02*
X83602000Y-136588000D01*
X94962000Y-132628000D02*
X94962000Y-131028000D01*
X95722000Y-134988000D02*
X94802000Y-134988000D01*
X84802000Y-134988000D02*
X84802000Y-136203000D01*
X86162000Y-128768000D02*
X86162000Y-133128000D01*
X84362000Y-132628000D02*
X84362000Y-131028000D01*
X85362000Y-131028000D02*
X85362000Y-132628000D01*
X94802000Y-134988000D02*
X94522000Y-134988000D01*
X83602000Y-128768000D02*
X95722000Y-128768000D01*
X84362000Y-131028000D02*
X85362000Y-131028000D01*
X84522000Y-134988000D02*
X84522000Y-136588000D01*
X83602000Y-136588000D02*
X83602000Y-128768000D01*
X93962000Y-131028000D02*
X93962000Y-132628000D01*
X93162000Y-133128000D02*
X93162000Y-128768000D01*
X95722000Y-128768000D02*
X95722000Y-136588000D01*
X84862000Y-131028000D02*
X84862000Y-128768000D01*
X85362000Y-131028000D02*
X85362000Y-128768000D01*
X85362000Y-132628000D02*
X84362000Y-132628000D01*
X93962000Y-132628000D02*
X94962000Y-132628000D01*
X83602000Y-134988000D02*
X84522000Y-134988000D01*
X95722000Y-136588000D02*
X94802000Y-136588000D01*
X94802000Y-136588000D02*
X94802000Y-134988000D01*
%TO.C,J6*%
X94332000Y-118148400D02*
X94332000Y-116933400D01*
X83412000Y-116548400D02*
X84332000Y-116548400D01*
X94272000Y-122108400D02*
X94272000Y-124368400D01*
X95532000Y-116548400D02*
X95532000Y-124368400D01*
X93772000Y-120508400D02*
X94772000Y-120508400D01*
X95532000Y-124368400D02*
X83412000Y-124368400D01*
X85172000Y-120508400D02*
X84172000Y-120508400D01*
X92972000Y-124368400D02*
X92972000Y-120008400D01*
X94612000Y-116548400D02*
X95532000Y-116548400D01*
X84332000Y-118148400D02*
X84612000Y-118148400D01*
X94612000Y-118148400D02*
X94612000Y-116548400D01*
X94332000Y-118148400D02*
X94612000Y-118148400D01*
X94772000Y-120508400D02*
X94772000Y-122108400D01*
X85172000Y-122108400D02*
X85172000Y-120508400D01*
X83412000Y-118148400D02*
X84332000Y-118148400D01*
X84172000Y-120508400D02*
X84172000Y-122108400D01*
X84172000Y-122108400D02*
X85172000Y-122108400D01*
X92972000Y-120008400D02*
X85972000Y-120008400D01*
X83412000Y-124368400D02*
X83412000Y-116548400D01*
X94772000Y-122108400D02*
X93772000Y-122108400D01*
X95532000Y-118148400D02*
X94612000Y-118148400D01*
X84332000Y-116548400D02*
X84332000Y-118148400D01*
X85972000Y-120008400D02*
X85972000Y-124368400D01*
X93772000Y-122108400D02*
X93772000Y-120508400D01*
X93772000Y-122108400D02*
X93772000Y-124368400D01*
%TD*%
%LPC*%
D12*
%TO.C,H8*%
X78232000Y-99822000D03*
D13*
X78232000Y-99822000D03*
%TD*%
D14*
%TO.C,OLED1*%
X99412000Y-140746000D03*
D15*
X99412000Y-138206000D03*
X99412000Y-135666000D03*
X99412000Y-133126000D03*
%TD*%
D16*
%TO.C,SW3*%
X152112000Y-134660000D03*
X139612000Y-134660000D03*
X152112000Y-139660000D03*
X139612000Y-139660000D03*
%TD*%
D12*
%TO.C,H7*%
X158496000Y-99822000D03*
D13*
X158496000Y-99822000D03*
%TD*%
D17*
%TO.C,J8*%
X108520000Y-97080000D03*
D18*
X110520000Y-97080000D03*
X112520000Y-97080000D03*
X114520000Y-97080000D03*
X116520000Y-97080000D03*
%TD*%
D19*
%TO.C,J3*%
X128523000Y-71628000D03*
X127508000Y-66548000D03*
X126493000Y-71628000D03*
%TD*%
D13*
%TO.C,H1*%
X78232000Y-116103400D03*
D12*
X78232000Y-116103400D03*
%TD*%
D17*
%TO.C,J9*%
X95312000Y-97080000D03*
D18*
X97312000Y-97080000D03*
X99312000Y-97080000D03*
X101312000Y-97080000D03*
X103312000Y-97080000D03*
%TD*%
D17*
%TO.C,J5*%
X121712000Y-97080000D03*
D18*
X123712000Y-97080000D03*
X125712000Y-97080000D03*
X127712000Y-97080000D03*
%TD*%
D14*
%TO.C,OLED2*%
X99412000Y-119918400D03*
D15*
X99412000Y-117378400D03*
X99412000Y-114838400D03*
X99412000Y-112298400D03*
%TD*%
D12*
%TO.C,H4*%
X158877000Y-136779000D03*
D13*
X158877000Y-136779000D03*
%TD*%
D20*
%TO.C,mouse-bite-3mm-slot*%
X82828000Y-107214800D03*
X85090000Y-104214800D03*
X83582000Y-104214800D03*
X82828000Y-104214800D03*
X87352000Y-104214800D03*
X84336000Y-107214800D03*
X83582000Y-107214800D03*
X85844000Y-104214800D03*
X87352000Y-107214800D03*
X84336000Y-104214800D03*
X85090000Y-107214800D03*
X86598000Y-104214800D03*
X85844000Y-107214800D03*
X86598000Y-107214800D03*
%TD*%
%TO.C,mouse-bite-3mm-slot*%
X151773000Y-127992000D03*
X152527000Y-124992000D03*
X150265000Y-124992000D03*
X154789000Y-124992000D03*
X153281000Y-127992000D03*
X152527000Y-127992000D03*
X150265000Y-127992000D03*
X154035000Y-127992000D03*
X153281000Y-124992000D03*
X151019000Y-124992000D03*
X154035000Y-124992000D03*
X154789000Y-127992000D03*
X151019000Y-127992000D03*
X151773000Y-124992000D03*
%TD*%
D12*
%TO.C,H3*%
X78232000Y-136779000D03*
D13*
X78232000Y-136779000D03*
%TD*%
D20*
%TO.C,mouse-bite-3mm-slot*%
X151019000Y-107214800D03*
X154035000Y-107214800D03*
X154035000Y-104214800D03*
X151773000Y-107214800D03*
X154789000Y-104214800D03*
X150265000Y-107214800D03*
X154789000Y-107214800D03*
X153281000Y-104214800D03*
X151019000Y-104214800D03*
X153281000Y-107214800D03*
X151773000Y-104214800D03*
X150265000Y-104214800D03*
X152527000Y-107214800D03*
X152527000Y-104214800D03*
%TD*%
D13*
%TO.C,H6*%
X158496000Y-57658000D03*
D12*
X158496000Y-57658000D03*
%TD*%
D16*
%TO.C,SW1*%
X139612000Y-113603400D03*
X152112000Y-113603400D03*
X139612000Y-118603400D03*
X152112000Y-118603400D03*
%TD*%
D13*
%TO.C,H5*%
X78232000Y-57658000D03*
D12*
X78232000Y-57658000D03*
%TD*%
D13*
%TO.C,H2*%
X158877000Y-116103400D03*
D12*
X158877000Y-116103400D03*
%TD*%
D20*
%TO.C,mouse-bite-3mm-slot*%
X82828000Y-127992000D03*
X84336000Y-124992000D03*
X86598000Y-124992000D03*
X83582000Y-127992000D03*
X87352000Y-124992000D03*
X86598000Y-127992000D03*
X85844000Y-127992000D03*
X85090000Y-127992000D03*
X84336000Y-127992000D03*
X87352000Y-127992000D03*
X85844000Y-124992000D03*
X82828000Y-124992000D03*
X85090000Y-124992000D03*
X83582000Y-124992000D03*
%TD*%
D21*
%TO.C,J1*%
X157518000Y-70960000D03*
D22*
X157518000Y-65180000D03*
D23*
X161218000Y-72395000D03*
X161218000Y-63745000D03*
D24*
X156943000Y-72395000D03*
X156943000Y-63745000D03*
%TD*%
D17*
%TO.C,J7*%
X85662000Y-135128000D03*
D18*
X87662000Y-135128000D03*
X89662000Y-135128000D03*
X91662000Y-135128000D03*
X93662000Y-135128000D03*
%TD*%
D25*
%TO.C,J6*%
X93472000Y-118008400D03*
D18*
X91472000Y-118008400D03*
X89472000Y-118008400D03*
X87472000Y-118008400D03*
X85472000Y-118008400D03*
%TD*%
D26*
X143764000Y-64770000D03*
X87757000Y-60579000D03*
X94442372Y-60941128D03*
X115443000Y-61595000D03*
X101727000Y-61022500D03*
X98679000Y-82296000D03*
X131064000Y-102489000D03*
X148336000Y-102489000D03*
X144780000Y-71755000D03*
X140463000Y-56349000D03*
X98552000Y-89027000D03*
X140463000Y-57365000D03*
X144272000Y-91440000D03*
X113411000Y-83058000D03*
X144018000Y-82296000D03*
X95758000Y-67437000D03*
X154813000Y-76835000D03*
X157226000Y-86360000D03*
X93345000Y-62992000D03*
X82931000Y-60960000D03*
X139447000Y-57365000D03*
X92075000Y-73406000D03*
X83439000Y-85217000D03*
X139447000Y-56349000D03*
X158750000Y-78105000D03*
X104902000Y-81915000D03*
X147574000Y-87757000D03*
X144399000Y-60706000D03*
X134747000Y-69469000D03*
X91186000Y-74295000D03*
X154813000Y-64135000D03*
X134747000Y-68326000D03*
X133604000Y-64643000D03*
X135890000Y-68326000D03*
X154813000Y-72009000D03*
X140335000Y-70612000D03*
X158877000Y-89789000D03*
X77343000Y-82169000D03*
X151130000Y-78105000D03*
X135890000Y-69469000D03*
X130429000Y-69088000D03*
X94361000Y-64262000D03*
X128905000Y-75438000D03*
X123571000Y-67818000D03*
X126746000Y-82804000D03*
X135509000Y-98679000D03*
X84455000Y-83185000D03*
X146431000Y-63246000D03*
X83185000Y-83185000D03*
X146304000Y-60452000D03*
X146431000Y-61849000D03*
X147574000Y-61849000D03*
X138938000Y-65405000D03*
X148844000Y-61849000D03*
X83566000Y-74168000D03*
X147574000Y-60452000D03*
X158877000Y-90805000D03*
X146431000Y-89789000D03*
X119761000Y-70485000D03*
X135509000Y-81661000D03*
X137414000Y-82550000D03*
X146431000Y-88570500D03*
X119761000Y-71755000D03*
X158877000Y-88646000D03*
X158877000Y-86487000D03*
X138811000Y-72644000D03*
X146608122Y-86791122D03*
X119761000Y-62865000D03*
X141478000Y-86233000D03*
X125222000Y-74422000D03*
X154559000Y-65659000D03*
X130429000Y-66167000D03*
X146812000Y-56388000D03*
X145669000Y-57658000D03*
X154051000Y-66421000D03*
X154051000Y-69850000D03*
X129921000Y-67183000D03*
X154559000Y-70612000D03*
X145669000Y-56388000D03*
X153543000Y-70612000D03*
X153543000Y-65659000D03*
X152908000Y-66421000D03*
X152908000Y-69850000D03*
X146812000Y-57658000D03*
X150104232Y-68716768D03*
X141360768Y-70983232D03*
X149361768Y-69459232D03*
X142103232Y-70240768D03*
X150114000Y-85598000D03*
X131826000Y-83693000D03*
X111760000Y-62357000D03*
X122871500Y-68643500D03*
X122803212Y-71007470D03*
X91440000Y-55499000D03*
X110109000Y-61595000D03*
X92139500Y-57277000D03*
X137160000Y-78867000D03*
X133985000Y-75565000D03*
X130251878Y-74359500D03*
X130302000Y-70358000D03*
X97790000Y-91694000D03*
X83820000Y-78105000D03*
X83566000Y-79202000D03*
X97155000Y-92710000D03*
X119761000Y-75565000D03*
X119761000Y-74295000D03*
X104267000Y-77216000D03*
X97663000Y-78105000D03*
X134112000Y-72898000D03*
X131572000Y-74759500D03*
X83566000Y-71501000D03*
X97663000Y-73025000D03*
X103251000Y-91313000D03*
X119761000Y-76835000D03*
X97663000Y-74295000D03*
X83566000Y-72898000D03*
X102941500Y-82028622D03*
X115189000Y-67945000D03*
X102235000Y-81153000D03*
X115189000Y-64135000D03*
X160909000Y-95377000D03*
X150114000Y-90678000D03*
X150114000Y-82677000D03*
X160909000Y-82296000D03*
M02*
