%TF.GenerationSoftware,KiCad,Pcbnew,(6.0.8-1)-1*%
%TF.CreationDate,2022-11-25T17:34:25-05:00*%
%TF.ProjectId,smart-chessboard-controller,736d6172-742d-4636-9865-7373626f6172,B*%
%TF.SameCoordinates,Original*%
%TF.FileFunction,Other,Comment*%
%FSLAX46Y46*%
G04 Gerber Fmt 4.6, Leading zero omitted, Abs format (unit mm)*
G04 Created by KiCad (PCBNEW (6.0.8-1)-1) date 2022-11-25 17:34:25*
%MOMM*%
%LPD*%
G01*
G04 APERTURE LIST*
%ADD10C,0.150000*%
%ADD11C,0.100000*%
%ADD12C,0.200000*%
%ADD13C,0.080000*%
%ADD14C,0.050000*%
G04 APERTURE END LIST*
D10*
%TO.C,U2*%
X105948095Y-57016666D02*
X106424285Y-57016666D01*
X105852857Y-57302380D02*
X106186190Y-56302380D01*
X106519523Y-57302380D01*
X106852857Y-56635714D02*
X106852857Y-57302380D01*
X106852857Y-56730952D02*
X106900476Y-56683333D01*
X106995714Y-56635714D01*
X107138571Y-56635714D01*
X107233809Y-56683333D01*
X107281428Y-56778571D01*
X107281428Y-57302380D01*
X107614761Y-56635714D02*
X107995714Y-56635714D01*
X107757619Y-56302380D02*
X107757619Y-57159523D01*
X107805238Y-57254761D01*
X107900476Y-57302380D01*
X107995714Y-57302380D01*
X108710000Y-57254761D02*
X108614761Y-57302380D01*
X108424285Y-57302380D01*
X108329047Y-57254761D01*
X108281428Y-57159523D01*
X108281428Y-56778571D01*
X108329047Y-56683333D01*
X108424285Y-56635714D01*
X108614761Y-56635714D01*
X108710000Y-56683333D01*
X108757619Y-56778571D01*
X108757619Y-56873809D01*
X108281428Y-56969047D01*
X109186190Y-56635714D02*
X109186190Y-57302380D01*
X109186190Y-56730952D02*
X109233809Y-56683333D01*
X109329047Y-56635714D01*
X109471904Y-56635714D01*
X109567142Y-56683333D01*
X109614761Y-56778571D01*
X109614761Y-57302380D01*
X110090952Y-56635714D02*
X110090952Y-57302380D01*
X110090952Y-56730952D02*
X110138571Y-56683333D01*
X110233809Y-56635714D01*
X110376666Y-56635714D01*
X110471904Y-56683333D01*
X110519523Y-56778571D01*
X110519523Y-57302380D01*
X111424285Y-57302380D02*
X111424285Y-56778571D01*
X111376666Y-56683333D01*
X111281428Y-56635714D01*
X111090952Y-56635714D01*
X110995714Y-56683333D01*
X111424285Y-57254761D02*
X111329047Y-57302380D01*
X111090952Y-57302380D01*
X110995714Y-57254761D01*
X110948095Y-57159523D01*
X110948095Y-57064285D01*
X110995714Y-56969047D01*
X111090952Y-56921428D01*
X111329047Y-56921428D01*
X111424285Y-56873809D01*
D11*
X96771904Y-55201190D02*
X96533809Y-55201190D01*
X96510000Y-55439285D01*
X96533809Y-55415476D01*
X96581428Y-55391666D01*
X96700476Y-55391666D01*
X96748095Y-55415476D01*
X96771904Y-55439285D01*
X96795714Y-55486904D01*
X96795714Y-55605952D01*
X96771904Y-55653571D01*
X96748095Y-55677380D01*
X96700476Y-55701190D01*
X96581428Y-55701190D01*
X96533809Y-55677380D01*
X96510000Y-55653571D01*
X97390952Y-55701190D02*
X97390952Y-55367857D01*
X97390952Y-55415476D02*
X97414761Y-55391666D01*
X97462380Y-55367857D01*
X97533809Y-55367857D01*
X97581428Y-55391666D01*
X97605238Y-55439285D01*
X97605238Y-55701190D01*
X97605238Y-55439285D02*
X97629047Y-55391666D01*
X97676666Y-55367857D01*
X97748095Y-55367857D01*
X97795714Y-55391666D01*
X97819523Y-55439285D01*
X97819523Y-55701190D01*
X98057619Y-55701190D02*
X98057619Y-55367857D01*
X98057619Y-55415476D02*
X98081428Y-55391666D01*
X98129047Y-55367857D01*
X98200476Y-55367857D01*
X98248095Y-55391666D01*
X98271904Y-55439285D01*
X98271904Y-55701190D01*
X98271904Y-55439285D02*
X98295714Y-55391666D01*
X98343333Y-55367857D01*
X98414761Y-55367857D01*
X98462380Y-55391666D01*
X98486190Y-55439285D01*
X98486190Y-55701190D01*
D10*
X102638571Y-51302380D02*
X102638571Y-50302380D01*
X103210000Y-51302380D02*
X102781428Y-50730952D01*
X103210000Y-50302380D02*
X102638571Y-50873809D01*
X103638571Y-50778571D02*
X103971904Y-50778571D01*
X104114761Y-51302380D02*
X103638571Y-51302380D01*
X103638571Y-50302380D01*
X104114761Y-50302380D01*
X104543333Y-50778571D02*
X104876666Y-50778571D01*
X105019523Y-51302380D02*
X104543333Y-51302380D01*
X104543333Y-50302380D01*
X105019523Y-50302380D01*
X105448095Y-51302380D02*
X105448095Y-50302380D01*
X105829047Y-50302380D01*
X105924285Y-50350000D01*
X105971904Y-50397619D01*
X106019523Y-50492857D01*
X106019523Y-50635714D01*
X105971904Y-50730952D01*
X105924285Y-50778571D01*
X105829047Y-50826190D01*
X105448095Y-50826190D01*
X106448095Y-50921428D02*
X107210000Y-50921428D01*
X107876666Y-50302380D02*
X108067142Y-50302380D01*
X108162380Y-50350000D01*
X108257619Y-50445238D01*
X108305238Y-50635714D01*
X108305238Y-50969047D01*
X108257619Y-51159523D01*
X108162380Y-51254761D01*
X108067142Y-51302380D01*
X107876666Y-51302380D01*
X107781428Y-51254761D01*
X107686190Y-51159523D01*
X107638571Y-50969047D01*
X107638571Y-50635714D01*
X107686190Y-50445238D01*
X107781428Y-50350000D01*
X107876666Y-50302380D01*
X108733809Y-50302380D02*
X108733809Y-51111904D01*
X108781428Y-51207142D01*
X108829047Y-51254761D01*
X108924285Y-51302380D01*
X109114761Y-51302380D01*
X109210000Y-51254761D01*
X109257619Y-51207142D01*
X109305238Y-51111904D01*
X109305238Y-50302380D01*
X109638571Y-50302380D02*
X110210000Y-50302380D01*
X109924285Y-51302380D02*
X109924285Y-50302380D01*
X111210000Y-50302380D02*
X111876666Y-50302380D01*
X111210000Y-51302380D01*
X111876666Y-51302380D01*
X112448095Y-50302380D02*
X112638571Y-50302380D01*
X112733809Y-50350000D01*
X112829047Y-50445238D01*
X112876666Y-50635714D01*
X112876666Y-50969047D01*
X112829047Y-51159523D01*
X112733809Y-51254761D01*
X112638571Y-51302380D01*
X112448095Y-51302380D01*
X112352857Y-51254761D01*
X112257619Y-51159523D01*
X112210000Y-50969047D01*
X112210000Y-50635714D01*
X112257619Y-50445238D01*
X112352857Y-50350000D01*
X112448095Y-50302380D01*
X113305238Y-51302380D02*
X113305238Y-50302380D01*
X113876666Y-51302380D01*
X113876666Y-50302380D01*
X114352857Y-50778571D02*
X114686190Y-50778571D01*
X114829047Y-51302380D02*
X114352857Y-51302380D01*
X114352857Y-50302380D01*
X114829047Y-50302380D01*
D11*
X116236190Y-51513095D02*
X116236190Y-51751190D01*
X116474285Y-51775000D01*
X116450476Y-51751190D01*
X116426666Y-51703571D01*
X116426666Y-51584523D01*
X116450476Y-51536904D01*
X116474285Y-51513095D01*
X116521904Y-51489285D01*
X116640952Y-51489285D01*
X116688571Y-51513095D01*
X116712380Y-51536904D01*
X116736190Y-51584523D01*
X116736190Y-51703571D01*
X116712380Y-51751190D01*
X116688571Y-51775000D01*
X116736190Y-50894047D02*
X116402857Y-50894047D01*
X116450476Y-50894047D02*
X116426666Y-50870238D01*
X116402857Y-50822619D01*
X116402857Y-50751190D01*
X116426666Y-50703571D01*
X116474285Y-50679761D01*
X116736190Y-50679761D01*
X116474285Y-50679761D02*
X116426666Y-50655952D01*
X116402857Y-50608333D01*
X116402857Y-50536904D01*
X116426666Y-50489285D01*
X116474285Y-50465476D01*
X116736190Y-50465476D01*
X116736190Y-50227380D02*
X116402857Y-50227380D01*
X116450476Y-50227380D02*
X116426666Y-50203571D01*
X116402857Y-50155952D01*
X116402857Y-50084523D01*
X116426666Y-50036904D01*
X116474285Y-50013095D01*
X116736190Y-50013095D01*
X116474285Y-50013095D02*
X116426666Y-49989285D01*
X116402857Y-49941666D01*
X116402857Y-49870238D01*
X116426666Y-49822619D01*
X116474285Y-49798809D01*
X116736190Y-49798809D01*
X119771904Y-55201190D02*
X119533809Y-55201190D01*
X119510000Y-55439285D01*
X119533809Y-55415476D01*
X119581428Y-55391666D01*
X119700476Y-55391666D01*
X119748095Y-55415476D01*
X119771904Y-55439285D01*
X119795714Y-55486904D01*
X119795714Y-55605952D01*
X119771904Y-55653571D01*
X119748095Y-55677380D01*
X119700476Y-55701190D01*
X119581428Y-55701190D01*
X119533809Y-55677380D01*
X119510000Y-55653571D01*
X120390952Y-55701190D02*
X120390952Y-55367857D01*
X120390952Y-55415476D02*
X120414761Y-55391666D01*
X120462380Y-55367857D01*
X120533809Y-55367857D01*
X120581428Y-55391666D01*
X120605238Y-55439285D01*
X120605238Y-55701190D01*
X120605238Y-55439285D02*
X120629047Y-55391666D01*
X120676666Y-55367857D01*
X120748095Y-55367857D01*
X120795714Y-55391666D01*
X120819523Y-55439285D01*
X120819523Y-55701190D01*
X121057619Y-55701190D02*
X121057619Y-55367857D01*
X121057619Y-55415476D02*
X121081428Y-55391666D01*
X121129047Y-55367857D01*
X121200476Y-55367857D01*
X121248095Y-55391666D01*
X121271904Y-55439285D01*
X121271904Y-55701190D01*
X121271904Y-55439285D02*
X121295714Y-55391666D01*
X121343333Y-55367857D01*
X121414761Y-55367857D01*
X121462380Y-55391666D01*
X121486190Y-55439285D01*
X121486190Y-55701190D01*
D12*
%TO.C,J2*%
X152712619Y-91529285D02*
X151612619Y-91529285D01*
X152712619Y-90957857D02*
X152084047Y-91386428D01*
X151612619Y-90957857D02*
X152241190Y-91529285D01*
X152660238Y-90148333D02*
X152712619Y-90243571D01*
X152712619Y-90434047D01*
X152660238Y-90529285D01*
X152555476Y-90576904D01*
X152136428Y-90576904D01*
X152031666Y-90529285D01*
X151979285Y-90434047D01*
X151979285Y-90243571D01*
X152031666Y-90148333D01*
X152136428Y-90100714D01*
X152241190Y-90100714D01*
X152345952Y-90576904D01*
X152660238Y-89291190D02*
X152712619Y-89386428D01*
X152712619Y-89576904D01*
X152660238Y-89672142D01*
X152555476Y-89719761D01*
X152136428Y-89719761D01*
X152031666Y-89672142D01*
X151979285Y-89576904D01*
X151979285Y-89386428D01*
X152031666Y-89291190D01*
X152136428Y-89243571D01*
X152241190Y-89243571D01*
X152345952Y-89719761D01*
X151979285Y-88815000D02*
X153079285Y-88815000D01*
X152031666Y-88815000D02*
X151979285Y-88719761D01*
X151979285Y-88529285D01*
X152031666Y-88434047D01*
X152084047Y-88386428D01*
X152188809Y-88338809D01*
X152503095Y-88338809D01*
X152607857Y-88386428D01*
X152660238Y-88434047D01*
X152712619Y-88529285D01*
X152712619Y-88719761D01*
X152660238Y-88815000D01*
X151612619Y-86957857D02*
X151612619Y-86767380D01*
X151665000Y-86672142D01*
X151769761Y-86576904D01*
X151979285Y-86529285D01*
X152345952Y-86529285D01*
X152555476Y-86576904D01*
X152660238Y-86672142D01*
X152712619Y-86767380D01*
X152712619Y-86957857D01*
X152660238Y-87053095D01*
X152555476Y-87148333D01*
X152345952Y-87195952D01*
X151979285Y-87195952D01*
X151769761Y-87148333D01*
X151665000Y-87053095D01*
X151612619Y-86957857D01*
X151979285Y-85672142D02*
X152712619Y-85672142D01*
X151979285Y-86100714D02*
X152555476Y-86100714D01*
X152660238Y-86053095D01*
X152712619Y-85957857D01*
X152712619Y-85815000D01*
X152660238Y-85719761D01*
X152607857Y-85672142D01*
X151979285Y-85338809D02*
X151979285Y-84957857D01*
X151612619Y-85195952D02*
X152555476Y-85195952D01*
X152660238Y-85148333D01*
X152712619Y-85053095D01*
X152712619Y-84957857D01*
D13*
%TO.C,J3*%
X127734190Y-70635619D02*
X127234190Y-70635619D01*
X127734190Y-70349904D02*
X127448476Y-70564190D01*
X127234190Y-70349904D02*
X127519904Y-70635619D01*
X127472285Y-70135619D02*
X127472285Y-69968952D01*
X127734190Y-69897523D02*
X127734190Y-70135619D01*
X127234190Y-70135619D01*
X127234190Y-69897523D01*
X127472285Y-69683238D02*
X127472285Y-69516571D01*
X127734190Y-69445142D02*
X127734190Y-69683238D01*
X127234190Y-69683238D01*
X127234190Y-69445142D01*
X127734190Y-69230857D02*
X127234190Y-69230857D01*
X127234190Y-69040380D01*
X127258000Y-68992761D01*
X127281809Y-68968952D01*
X127329428Y-68945142D01*
X127400857Y-68945142D01*
X127448476Y-68968952D01*
X127472285Y-68992761D01*
X127496095Y-69040380D01*
X127496095Y-69230857D01*
X127234190Y-68635619D02*
X127234190Y-68540380D01*
X127258000Y-68492761D01*
X127305619Y-68445142D01*
X127400857Y-68421333D01*
X127567523Y-68421333D01*
X127662761Y-68445142D01*
X127710380Y-68492761D01*
X127734190Y-68540380D01*
X127734190Y-68635619D01*
X127710380Y-68683238D01*
X127662761Y-68730857D01*
X127567523Y-68754666D01*
X127400857Y-68754666D01*
X127305619Y-68730857D01*
X127258000Y-68683238D01*
X127234190Y-68635619D01*
X127234190Y-68207047D02*
X127638952Y-68207047D01*
X127686571Y-68183238D01*
X127710380Y-68159428D01*
X127734190Y-68111809D01*
X127734190Y-68016571D01*
X127710380Y-67968952D01*
X127686571Y-67945142D01*
X127638952Y-67921333D01*
X127234190Y-67921333D01*
X127234190Y-67754666D02*
X127234190Y-67468952D01*
X127734190Y-67611809D02*
X127234190Y-67611809D01*
D14*
X127643714Y-76724428D02*
X127343714Y-76724428D01*
X127643714Y-76553000D01*
X127343714Y-76553000D01*
X127643714Y-76367285D02*
X127629428Y-76395857D01*
X127615142Y-76410142D01*
X127586571Y-76424428D01*
X127500857Y-76424428D01*
X127472285Y-76410142D01*
X127458000Y-76395857D01*
X127443714Y-76367285D01*
X127443714Y-76324428D01*
X127458000Y-76295857D01*
X127472285Y-76281571D01*
X127500857Y-76267285D01*
X127586571Y-76267285D01*
X127615142Y-76281571D01*
X127629428Y-76295857D01*
X127643714Y-76324428D01*
X127643714Y-76367285D01*
X127443714Y-75953000D02*
X127443714Y-75838714D01*
X127343714Y-75910142D02*
X127600857Y-75910142D01*
X127629428Y-75895857D01*
X127643714Y-75867285D01*
X127643714Y-75838714D01*
X127643714Y-75738714D02*
X127443714Y-75738714D01*
X127500857Y-75738714D02*
X127472285Y-75724428D01*
X127458000Y-75710142D01*
X127443714Y-75681571D01*
X127443714Y-75653000D01*
X127643714Y-75424428D02*
X127486571Y-75424428D01*
X127458000Y-75438714D01*
X127443714Y-75467285D01*
X127443714Y-75524428D01*
X127458000Y-75553000D01*
X127629428Y-75424428D02*
X127643714Y-75453000D01*
X127643714Y-75524428D01*
X127629428Y-75553000D01*
X127600857Y-75567285D01*
X127572285Y-75567285D01*
X127543714Y-75553000D01*
X127529428Y-75524428D01*
X127529428Y-75453000D01*
X127515142Y-75424428D01*
X127629428Y-75153000D02*
X127643714Y-75181571D01*
X127643714Y-75238714D01*
X127629428Y-75267285D01*
X127615142Y-75281571D01*
X127586571Y-75295857D01*
X127500857Y-75295857D01*
X127472285Y-75281571D01*
X127458000Y-75267285D01*
X127443714Y-75238714D01*
X127443714Y-75181571D01*
X127458000Y-75153000D01*
X127643714Y-75024428D02*
X127343714Y-75024428D01*
X127529428Y-74995857D02*
X127643714Y-74910142D01*
X127443714Y-74910142D02*
X127558000Y-75024428D01*
X127629428Y-74795857D02*
X127643714Y-74767285D01*
X127643714Y-74710142D01*
X127629428Y-74681571D01*
X127600857Y-74667285D01*
X127586571Y-74667285D01*
X127558000Y-74681571D01*
X127543714Y-74710142D01*
X127543714Y-74753000D01*
X127529428Y-74781571D01*
X127500857Y-74795857D01*
X127486571Y-74795857D01*
X127458000Y-74781571D01*
X127443714Y-74753000D01*
X127443714Y-74710142D01*
X127458000Y-74681571D01*
X127643714Y-74267285D02*
X127629428Y-74295857D01*
X127615142Y-74310142D01*
X127586571Y-74324428D01*
X127500857Y-74324428D01*
X127472285Y-74310142D01*
X127458000Y-74295857D01*
X127443714Y-74267285D01*
X127443714Y-74224428D01*
X127458000Y-74195857D01*
X127472285Y-74181571D01*
X127500857Y-74167285D01*
X127586571Y-74167285D01*
X127615142Y-74181571D01*
X127629428Y-74195857D01*
X127643714Y-74224428D01*
X127643714Y-74267285D01*
X127643714Y-74038714D02*
X127443714Y-74038714D01*
X127500857Y-74038714D02*
X127472285Y-74024428D01*
X127458000Y-74010142D01*
X127443714Y-73981571D01*
X127443714Y-73953000D01*
X127443714Y-73653000D02*
X127643714Y-73581571D01*
X127443714Y-73510142D01*
X127643714Y-73395857D02*
X127443714Y-73395857D01*
X127343714Y-73395857D02*
X127358000Y-73410142D01*
X127372285Y-73395857D01*
X127358000Y-73381571D01*
X127343714Y-73395857D01*
X127372285Y-73395857D01*
X127643714Y-73124428D02*
X127486571Y-73124428D01*
X127458000Y-73138714D01*
X127443714Y-73167285D01*
X127443714Y-73224428D01*
X127458000Y-73253000D01*
X127629428Y-73124428D02*
X127643714Y-73153000D01*
X127643714Y-73224428D01*
X127629428Y-73253000D01*
X127600857Y-73267285D01*
X127572285Y-73267285D01*
X127543714Y-73253000D01*
X127529428Y-73224428D01*
X127529428Y-73153000D01*
X127515142Y-73124428D01*
X127629428Y-72995857D02*
X127643714Y-72967285D01*
X127643714Y-72910142D01*
X127629428Y-72881571D01*
X127600857Y-72867285D01*
X127586571Y-72867285D01*
X127558000Y-72881571D01*
X127543714Y-72910142D01*
X127543714Y-72953000D01*
X127529428Y-72981571D01*
X127500857Y-72995857D01*
X127486571Y-72995857D01*
X127458000Y-72981571D01*
X127443714Y-72953000D01*
X127443714Y-72910142D01*
X127458000Y-72881571D01*
X127008714Y-76531571D02*
X126808714Y-76531571D01*
X126708714Y-76531571D02*
X126723000Y-76545857D01*
X126737285Y-76531571D01*
X126723000Y-76517285D01*
X126708714Y-76531571D01*
X126737285Y-76531571D01*
X126808714Y-76388714D02*
X127008714Y-76388714D01*
X126837285Y-76388714D02*
X126823000Y-76374428D01*
X126808714Y-76345857D01*
X126808714Y-76303000D01*
X126823000Y-76274428D01*
X126851571Y-76260142D01*
X127008714Y-76260142D01*
X127008714Y-75888714D02*
X126708714Y-75888714D01*
X126894428Y-75860142D02*
X127008714Y-75774428D01*
X126808714Y-75774428D02*
X126923000Y-75888714D01*
X126994428Y-75531571D02*
X127008714Y-75560142D01*
X127008714Y-75617285D01*
X126994428Y-75645857D01*
X126965857Y-75660142D01*
X126851571Y-75660142D01*
X126823000Y-75645857D01*
X126808714Y-75617285D01*
X126808714Y-75560142D01*
X126823000Y-75531571D01*
X126851571Y-75517285D01*
X126880142Y-75517285D01*
X126908714Y-75660142D01*
X126994428Y-75274428D02*
X127008714Y-75303000D01*
X127008714Y-75360142D01*
X126994428Y-75388714D01*
X126965857Y-75403000D01*
X126851571Y-75403000D01*
X126823000Y-75388714D01*
X126808714Y-75360142D01*
X126808714Y-75303000D01*
X126823000Y-75274428D01*
X126851571Y-75260142D01*
X126880142Y-75260142D01*
X126908714Y-75403000D01*
X126808714Y-75131571D02*
X127108714Y-75131571D01*
X126823000Y-75131571D02*
X126808714Y-75103000D01*
X126808714Y-75045857D01*
X126823000Y-75017285D01*
X126837285Y-75003000D01*
X126865857Y-74988714D01*
X126951571Y-74988714D01*
X126980142Y-75003000D01*
X126994428Y-75017285D01*
X127008714Y-75045857D01*
X127008714Y-75103000D01*
X126994428Y-75131571D01*
X127008714Y-74817285D02*
X126994428Y-74845857D01*
X126980142Y-74860142D01*
X126951571Y-74874428D01*
X126865857Y-74874428D01*
X126837285Y-74860142D01*
X126823000Y-74845857D01*
X126808714Y-74817285D01*
X126808714Y-74774428D01*
X126823000Y-74745857D01*
X126837285Y-74731571D01*
X126865857Y-74717285D01*
X126951571Y-74717285D01*
X126980142Y-74731571D01*
X126994428Y-74745857D01*
X127008714Y-74774428D01*
X127008714Y-74817285D01*
X126808714Y-74460142D02*
X127008714Y-74460142D01*
X126808714Y-74588714D02*
X126965857Y-74588714D01*
X126994428Y-74574428D01*
X127008714Y-74545857D01*
X127008714Y-74503000D01*
X126994428Y-74474428D01*
X126980142Y-74460142D01*
X126808714Y-74360142D02*
X126808714Y-74245857D01*
X126708714Y-74317285D02*
X126965857Y-74317285D01*
X126994428Y-74303000D01*
X127008714Y-74274428D01*
X127008714Y-74245857D01*
X127008714Y-73788714D02*
X126851571Y-73788714D01*
X126823000Y-73803000D01*
X126808714Y-73831571D01*
X126808714Y-73888714D01*
X126823000Y-73917285D01*
X126994428Y-73788714D02*
X127008714Y-73817285D01*
X127008714Y-73888714D01*
X126994428Y-73917285D01*
X126965857Y-73931571D01*
X126937285Y-73931571D01*
X126908714Y-73917285D01*
X126894428Y-73888714D01*
X126894428Y-73817285D01*
X126880142Y-73788714D01*
X127008714Y-73645857D02*
X126808714Y-73645857D01*
X126865857Y-73645857D02*
X126837285Y-73631571D01*
X126823000Y-73617285D01*
X126808714Y-73588714D01*
X126808714Y-73560142D01*
X126994428Y-73345857D02*
X127008714Y-73374428D01*
X127008714Y-73431571D01*
X126994428Y-73460142D01*
X126965857Y-73474428D01*
X126851571Y-73474428D01*
X126823000Y-73460142D01*
X126808714Y-73431571D01*
X126808714Y-73374428D01*
X126823000Y-73345857D01*
X126851571Y-73331571D01*
X126880142Y-73331571D01*
X126908714Y-73474428D01*
X127008714Y-73074428D02*
X126851571Y-73074428D01*
X126823000Y-73088714D01*
X126808714Y-73117285D01*
X126808714Y-73174428D01*
X126823000Y-73203000D01*
X126994428Y-73074428D02*
X127008714Y-73103000D01*
X127008714Y-73174428D01*
X126994428Y-73203000D01*
X126965857Y-73217285D01*
X126937285Y-73217285D01*
X126908714Y-73203000D01*
X126894428Y-73174428D01*
X126894428Y-73103000D01*
X126880142Y-73074428D01*
D10*
%TO.C,H8*%
X80582000Y-99822000D02*
G75*
G03*
X80582000Y-99822000I-2350000J0D01*
G01*
%TO.C,H7*%
X160846000Y-99822000D02*
G75*
G03*
X160846000Y-99822000I-2350000J0D01*
G01*
D11*
%TO.C,U2*%
X117110000Y-49250000D02*
X116910000Y-49450000D01*
X117910000Y-55975000D02*
X118110000Y-55775000D01*
X94910000Y-55975000D02*
X99510000Y-55975000D01*
X117110000Y-53850000D02*
X117310000Y-53650000D01*
X99510000Y-55975000D02*
X99310000Y-56175000D01*
X117110000Y-53850000D02*
X116910000Y-53650000D01*
X117110000Y-49250000D02*
X117310000Y-49450000D01*
X99510000Y-55975000D02*
X99310000Y-55775000D01*
X122510000Y-55975000D02*
X122310000Y-56175000D01*
X117910000Y-55975000D02*
X118110000Y-56175000D01*
X122510000Y-55975000D02*
X122310000Y-55775000D01*
X117910000Y-55975000D02*
X122510000Y-55975000D01*
X94910000Y-55975000D02*
X95110000Y-56175000D01*
X94910000Y-55975000D02*
X95110000Y-55775000D01*
X117110000Y-53850000D02*
X117110000Y-49250000D01*
D10*
%TO.C,H1*%
X80582000Y-116103400D02*
G75*
G03*
X80582000Y-116103400I-2350000J0D01*
G01*
%TO.C,H4*%
X161227000Y-136779000D02*
G75*
G03*
X161227000Y-136779000I-2350000J0D01*
G01*
%TO.C,H3*%
X80582000Y-136779000D02*
G75*
G03*
X80582000Y-136779000I-2350000J0D01*
G01*
%TO.C,H6*%
X160846000Y-57658000D02*
G75*
G03*
X160846000Y-57658000I-2350000J0D01*
G01*
%TO.C,H5*%
X80582000Y-57658000D02*
G75*
G03*
X80582000Y-57658000I-2350000J0D01*
G01*
%TO.C,H2*%
X161227000Y-116103400D02*
G75*
G03*
X161227000Y-116103400I-2350000J0D01*
G01*
%TD*%
M02*
